solid OpenSCAD_Model
  facet normal 0 0.19509 -0.980785
    outer loop
      vertex -8 0 -4.5
      vertex 109 1.72208 -4.15746
      vertex 109 0 -4.5
    endloop
  endfacet
  facet normal 0 0.19509 -0.980785
    outer loop
      vertex 109 1.72208 -4.15746
      vertex -8 0 -4.5
      vertex -8 1.72208 -4.15746
    endloop
  endfacet
  facet normal 0 0.55557 -0.83147
    outer loop
      vertex -8 1.72208 -4.15746
      vertex 109 3.18198 -3.18198
      vertex 109 1.72208 -4.15746
    endloop
  endfacet
  facet normal 0 0.55557 -0.83147
    outer loop
      vertex 109 3.18198 -3.18198
      vertex -8 1.72208 -4.15746
      vertex -8 3.18198 -3.18198
    endloop
  endfacet
  facet normal 0 0.83147 -0.55557
    outer loop
      vertex 109 3.18198 -3.18198
      vertex -8 4.15746 -1.72208
      vertex 109 4.15746 -1.72208
    endloop
  endfacet
  facet normal 0 0.83147 -0.55557
    outer loop
      vertex -8 4.15746 -1.72208
      vertex 109 3.18198 -3.18198
      vertex -8 3.18198 -3.18198
    endloop
  endfacet
  facet normal 4.32351e-017 0.980785 -0.19509
    outer loop
      vertex 109 4.15746 -1.72208
      vertex -8 4.5 -2.75536e-016
      vertex 109 4.5 2.57037e-014
    endloop
  endfacet
  facet normal 0 0.980785 -0.19509
    outer loop
      vertex -8 4.5 -2.75536e-016
      vertex 109 4.15746 -1.72208
      vertex -8 4.15746 -1.72208
    endloop
  endfacet
  facet normal 0 0.980785 0.19509
    outer loop
      vertex 109 4.5 2.57037e-014
      vertex -8 4.15746 1.72208
      vertex 109 4.15746 1.72208
    endloop
  endfacet
  facet normal -4.32351e-017 0.980785 0.19509
    outer loop
      vertex -8 4.15746 1.72208
      vertex 109 4.5 2.57037e-014
      vertex -8 4.5 -2.75536e-016
    endloop
  endfacet
  facet normal 0 0.83147 0.55557
    outer loop
      vertex 109 4.15746 1.72208
      vertex -8 3.18198 3.18198
      vertex 109 3.18198 3.18198
    endloop
  endfacet
  facet normal 0 0.83147 0.55557
    outer loop
      vertex -8 3.18198 3.18198
      vertex 109 4.15746 1.72208
      vertex -8 4.15746 1.72208
    endloop
  endfacet
  facet normal -0 0.55557 0.83147
    outer loop
      vertex -8 3.18198 3.18198
      vertex 109 1.72208 4.15746
      vertex 109 3.18198 3.18198
    endloop
  endfacet
  facet normal 0 0.55557 0.83147
    outer loop
      vertex 109 1.72208 4.15746
      vertex -8 3.18198 3.18198
      vertex -8 1.72208 4.15746
    endloop
  endfacet
  facet normal -0 0.19509 0.980785
    outer loop
      vertex -8 1.72208 4.15746
      vertex 109 5.51073e-016 4.5
      vertex 109 1.72208 4.15746
    endloop
  endfacet
  facet normal 0 0.19509 0.980785
    outer loop
      vertex 109 5.51073e-016 4.5
      vertex -8 1.72208 4.15746
      vertex -8 5.51073e-016 4.5
    endloop
  endfacet
  facet normal 0 -0.19509 0.980785
    outer loop
      vertex -8 5.51073e-016 4.5
      vertex 109 -1.72208 4.15746
      vertex 109 5.51073e-016 4.5
    endloop
  endfacet
  facet normal 0 -0.19509 0.980785
    outer loop
      vertex 109 -1.72208 4.15746
      vertex -8 5.51073e-016 4.5
      vertex -8 -1.72208 4.15746
    endloop
  endfacet
  facet normal 0 -0.55557 0.83147
    outer loop
      vertex -8 -1.72208 4.15746
      vertex 109 -3.18198 3.18198
      vertex 109 -1.72208 4.15746
    endloop
  endfacet
  facet normal 0 -0.55557 0.83147
    outer loop
      vertex 109 -3.18198 3.18198
      vertex -8 -1.72208 4.15746
      vertex -8 -3.18198 3.18198
    endloop
  endfacet
  facet normal 0 -0.83147 0.55557
    outer loop
      vertex -8 -4.15746 1.72208
      vertex 109 -3.18198 3.18198
      vertex -8 -3.18198 3.18198
    endloop
  endfacet
  facet normal 0 -0.83147 0.55557
    outer loop
      vertex 109 -3.18198 3.18198
      vertex -8 -4.15746 1.72208
      vertex 109 -4.15746 1.72208
    endloop
  endfacet
  facet normal 0 -0.980785 0.19509
    outer loop
      vertex -8 -4.15746 1.72208
      vertex 109 -4.5 2.68058e-014
      vertex 109 -4.15746 1.72208
    endloop
  endfacet
  facet normal -4.33188e-017 -0.980785 0.19509
    outer loop
      vertex 109 -4.5 2.68058e-014
      vertex -8 -4.15746 1.72208
      vertex -8 -4.5 8.26609e-016
    endloop
  endfacet
  facet normal 4.32351e-017 -0.980785 -0.19509
    outer loop
      vertex -8 -4.15746 -1.72208
      vertex 109 -4.5 2.68058e-014
      vertex -8 -4.5 8.26609e-016
    endloop
  endfacet
  facet normal 0 -0.980785 -0.19509
    outer loop
      vertex 109 -4.5 2.68058e-014
      vertex -8 -4.15746 -1.72208
      vertex 109 -4.15746 -1.72208
    endloop
  endfacet
  facet normal 0 -0.83147 -0.55557
    outer loop
      vertex -8 -3.18198 -3.18198
      vertex 109 -4.15746 -1.72208
      vertex -8 -4.15746 -1.72208
    endloop
  endfacet
  facet normal 0 -0.83147 -0.55557
    outer loop
      vertex 109 -4.15746 -1.72208
      vertex -8 -3.18198 -3.18198
      vertex 109 -3.18198 -3.18198
    endloop
  endfacet
  facet normal 0 -0.55557 -0.83147
    outer loop
      vertex -8 -3.18198 -3.18198
      vertex 109 -1.72208 -4.15746
      vertex 109 -3.18198 -3.18198
    endloop
  endfacet
  facet normal -0 -0.55557 -0.83147
    outer loop
      vertex 109 -1.72208 -4.15746
      vertex -8 -3.18198 -3.18198
      vertex -8 -1.72208 -4.15746
    endloop
  endfacet
  facet normal 0 -0.19509 -0.980785
    outer loop
      vertex -8 -1.72208 -4.15746
      vertex 109 0 -4.5
      vertex 109 -1.72208 -4.15746
    endloop
  endfacet
  facet normal -0 -0.19509 -0.980785
    outer loop
      vertex 109 0 -4.5
      vertex -8 -1.72208 -4.15746
      vertex -8 0 -4.5
    endloop
  endfacet
  facet normal -1 0 0
    outer loop
      vertex -8 4.15746 -1.72208
      vertex -8 4.15746 1.72208
      vertex -8 4.5 -2.75536e-016
    endloop
  endfacet
  facet normal -1 0 0
    outer loop
      vertex -8 3.18198 -3.18198
      vertex -8 4.15746 1.72208
      vertex -8 4.15746 -1.72208
    endloop
  endfacet
  facet normal -1 0 0
    outer loop
      vertex -8 3.18198 -3.18198
      vertex -8 3.18198 3.18198
      vertex -8 4.15746 1.72208
    endloop
  endfacet
  facet normal -1 0 0
    outer loop
      vertex -8 1.72208 -4.15746
      vertex -8 3.18198 3.18198
      vertex -8 3.18198 -3.18198
    endloop
  endfacet
  facet normal -1 0 0
    outer loop
      vertex -8 1.72208 -4.15746
      vertex -8 1.72208 4.15746
      vertex -8 3.18198 3.18198
    endloop
  endfacet
  facet normal -1 0 0
    outer loop
      vertex -8 1.72208 -4.15746
      vertex -8 5.51073e-016 4.5
      vertex -8 1.72208 4.15746
    endloop
  endfacet
  facet normal -1 0 0
    outer loop
      vertex -8 0 -4.5
      vertex -8 5.51073e-016 4.5
      vertex -8 1.72208 -4.15746
    endloop
  endfacet
  facet normal -1 0 0
    outer loop
      vertex -8 -1.72208 -4.15746
      vertex -8 5.51073e-016 4.5
      vertex -8 0 -4.5
    endloop
  endfacet
  facet normal -1 0 0
    outer loop
      vertex -8 -1.72208 -4.15746
      vertex -8 -1.72208 4.15746
      vertex -8 5.51073e-016 4.5
    endloop
  endfacet
  facet normal -1 0 0
    outer loop
      vertex -8 -3.18198 -3.18198
      vertex -8 -1.72208 4.15746
      vertex -8 -1.72208 -4.15746
    endloop
  endfacet
  facet normal -1 0 0
    outer loop
      vertex -8 -3.18198 -3.18198
      vertex -8 -3.18198 3.18198
      vertex -8 -1.72208 4.15746
    endloop
  endfacet
  facet normal -1 0 0
    outer loop
      vertex -8 -4.15746 -1.72208
      vertex -8 -3.18198 3.18198
      vertex -8 -3.18198 -3.18198
    endloop
  endfacet
  facet normal -1 0 0
    outer loop
      vertex -8 -4.15746 -1.72208
      vertex -8 -4.15746 1.72208
      vertex -8 -3.18198 3.18198
    endloop
  endfacet
  facet normal -1 0 -0
    outer loop
      vertex -8 -4.15746 1.72208
      vertex -8 -4.15746 -1.72208
      vertex -8 -4.5 8.26609e-016
    endloop
  endfacet
  facet normal 1 0 0
    outer loop
      vertex 109 4.15746 1.72208
      vertex 109 4.15746 -1.72208
      vertex 109 4.5 2.57037e-014
    endloop
  endfacet
  facet normal 1 0 0
    outer loop
      vertex 109 3.18198 3.18198
      vertex 109 4.15746 -1.72208
      vertex 109 4.15746 1.72208
    endloop
  endfacet
  facet normal 1 0 0
    outer loop
      vertex 109 3.18198 3.18198
      vertex 109 3.18198 -3.18198
      vertex 109 4.15746 -1.72208
    endloop
  endfacet
  facet normal 1 0 0
    outer loop
      vertex 109 1.72208 4.15746
      vertex 109 3.18198 -3.18198
      vertex 109 3.18198 3.18198
    endloop
  endfacet
  facet normal 1 0 0
    outer loop
      vertex 109 1.72208 4.15746
      vertex 109 1.72208 -4.15746
      vertex 109 3.18198 -3.18198
    endloop
  endfacet
  facet normal 1 0 0
    outer loop
      vertex 109 5.51073e-016 4.5
      vertex 109 1.72208 -4.15746
      vertex 109 1.72208 4.15746
    endloop
  endfacet
  facet normal 1 0 0
    outer loop
      vertex 109 5.51073e-016 4.5
      vertex 109 0 -4.5
      vertex 109 1.72208 -4.15746
    endloop
  endfacet
  facet normal 1 -0 0
    outer loop
      vertex 109 -1.72208 4.15746
      vertex 109 0 -4.5
      vertex 109 5.51073e-016 4.5
    endloop
  endfacet
  facet normal 1 0 0
    outer loop
      vertex 109 -1.72208 4.15746
      vertex 109 -1.72208 -4.15746
      vertex 109 0 -4.5
    endloop
  endfacet
  facet normal 1 -0 0
    outer loop
      vertex 109 -3.18198 3.18198
      vertex 109 -1.72208 -4.15746
      vertex 109 -1.72208 4.15746
    endloop
  endfacet
  facet normal 1 0 0
    outer loop
      vertex 109 -3.18198 3.18198
      vertex 109 -3.18198 -3.18198
      vertex 109 -1.72208 -4.15746
    endloop
  endfacet
  facet normal 1 -0 0
    outer loop
      vertex 109 -4.15746 1.72208
      vertex 109 -3.18198 -3.18198
      vertex 109 -3.18198 3.18198
    endloop
  endfacet
  facet normal 1 0 0
    outer loop
      vertex 109 -4.15746 1.72208
      vertex 109 -4.15746 -1.72208
      vertex 109 -3.18198 -3.18198
    endloop
  endfacet
  facet normal 1 0 -0
    outer loop
      vertex 109 -4.15746 -1.72208
      vertex 109 -4.15746 1.72208
      vertex 109 -4.5 2.68058e-014
    endloop
  endfacet
endsolid OpenSCAD_Model
