solid OpenSCAD_Model
  facet normal 1 -0 0
    outer loop
      vertex 0 58 7.5
      vertex 0 61 -5
      vertex 0 61 7.5
    endloop
  endfacet
  facet normal 1 0 0
    outer loop
      vertex 0 61 -5
      vertex 0 58 7.5
      vertex 0 58 -5
    endloop
  endfacet
  facet normal 0 0 1
    outer loop
      vertex 96 63 7.5
      vertex 93 61 7.5
      vertex 96 58 7.5
    endloop
  endfacet
  facet normal 0 0 1
    outer loop
      vertex 96 63 7.5
      vertex 86 61 7.5
      vertex 93 61 7.5
    endloop
  endfacet
  facet normal 0 0 1
    outer loop
      vertex 86 61 7.5
      vertex 83 61 7.5
      vertex 86 58 7.5
    endloop
  endfacet
  facet normal 0 0 1
    outer loop
      vertex 96 63 7.5
      vertex 83 61 7.5
      vertex 86 61 7.5
    endloop
  endfacet
  facet normal 0 0 1
    outer loop
      vertex 96 63 7.5
      vertex 11 61 7.5
      vertex 83 61 7.5
    endloop
  endfacet
  facet normal 0 0 1
    outer loop
      vertex 11 61 7.5
      vertex 8 61 7.5
      vertex 11 58 7.5
    endloop
  endfacet
  facet normal -0 0 1
    outer loop
      vertex -3 63 7.5
      vertex 11 61 7.5
      vertex 96 63 7.5
    endloop
  endfacet
  facet normal 0 0 1
    outer loop
      vertex 11 61 7.5
      vertex -3 63 7.5
      vertex 8 61 7.5
    endloop
  endfacet
  facet normal 0 0 1
    outer loop
      vertex 8 61 7.5
      vertex -3 63 7.5
      vertex 0 61 7.5
    endloop
  endfacet
  facet normal 0 0 1
    outer loop
      vertex -3 58 7.5
      vertex 0 61 7.5
      vertex -3 63 7.5
    endloop
  endfacet
  facet normal 0 0 1
    outer loop
      vertex 0 61 7.5
      vertex -3 58 7.5
      vertex 0 58 7.5
    endloop
  endfacet
  facet normal 0 0 1
    outer loop
      vertex 96 58 7.5
      vertex 93 61 7.5
      vertex 93 58 7.5
    endloop
  endfacet
  facet normal 0 0 1
    outer loop
      vertex 86 58 7.5
      vertex 83 61 7.5
      vertex 83 58 7.5
    endloop
  endfacet
  facet normal 0 0 1
    outer loop
      vertex 11 58 7.5
      vertex 8 61 7.5
      vertex 8 58 7.5
    endloop
  endfacet
  facet normal -1 0 0
    outer loop
      vertex 93 58 -5
      vertex 93 61 7.5
      vertex 93 61 -5
    endloop
  endfacet
  facet normal -1 -0 0
    outer loop
      vertex 93 61 7.5
      vertex 93 58 -5
      vertex 93 58 7.5
    endloop
  endfacet
  facet normal 0 0 -1
    outer loop
      vertex 0 58 -5
      vertex -3 58 -5
      vertex 0 61 -5
    endloop
  endfacet
  facet normal 0 0 -1
    outer loop
      vertex 11 58 -5
      vertex 8 58 -5
      vertex 11 61 -5
    endloop
  endfacet
  facet normal 0 0 -1
    outer loop
      vertex 86 58 -5
      vertex 83 58 -5
      vertex 86 61 -5
    endloop
  endfacet
  facet normal 0 0 -1
    outer loop
      vertex 93 61 -5
      vertex 96 58 -5
      vertex 93 58 -5
    endloop
  endfacet
  facet normal 0 0 -1
    outer loop
      vertex 96 58 -5
      vertex 93 61 -5
      vertex 96 63 -5
    endloop
  endfacet
  facet normal 0 0 -1
    outer loop
      vertex 86 61 -5
      vertex 96 63 -5
      vertex 93 61 -5
    endloop
  endfacet
  facet normal 0 0 -1
    outer loop
      vertex 83 61 -5
      vertex 86 61 -5
      vertex 83 58 -5
    endloop
  endfacet
  facet normal 0 0 -1
    outer loop
      vertex 83 61 -5
      vertex 96 63 -5
      vertex 86 61 -5
    endloop
  endfacet
  facet normal 0 0 -1
    outer loop
      vertex 11 61 -5
      vertex 96 63 -5
      vertex 83 61 -5
    endloop
  endfacet
  facet normal 0 0 -1
    outer loop
      vertex 8 61 -5
      vertex 11 61 -5
      vertex 8 58 -5
    endloop
  endfacet
  facet normal 0 0 -1
    outer loop
      vertex -3 63 -5
      vertex 11 61 -5
      vertex 8 61 -5
    endloop
  endfacet
  facet normal 0 0 -1
    outer loop
      vertex -3 63 -5
      vertex 8 61 -5
      vertex 0 61 -5
    endloop
  endfacet
  facet normal 0 0 -1
    outer loop
      vertex 11 61 -5
      vertex -3 63 -5
      vertex 96 63 -5
    endloop
  endfacet
  facet normal 0 0 -1
    outer loop
      vertex -3 63 -5
      vertex 0 61 -5
      vertex -3 58 -5
    endloop
  endfacet
  facet normal 0 -1 0
    outer loop
      vertex 89.8 61 1.38564
      vertex 86 61 7.5
      vertex 88.2 61 1.38564
    endloop
  endfacet
  facet normal 0 -1 0
    outer loop
      vertex 86 61 7.5
      vertex 87.88 61 0.831384
      vertex 88.2 61 1.38564
    endloop
  endfacet
  facet normal 0 -1 0
    outer loop
      vertex 86 61 7.5
      vertex 87.4 61 1.08412e-015
      vertex 87.88 61 0.831384
    endloop
  endfacet
  facet normal 0 -1 0
    outer loop
      vertex 86 61 -5
      vertex 87.72 61 -0.554256
      vertex 87.4 61 1.08412e-015
    endloop
  endfacet
  facet normal 0 -1 -0
    outer loop
      vertex 88.2 61 -1.38564
      vertex 86 61 -5
      vertex 89.8 61 -1.38564
    endloop
  endfacet
  facet normal 0 -1 -0
    outer loop
      vertex 87.72 61 -0.554256
      vertex 86 61 -5
      vertex 88.2 61 -1.38564
    endloop
  endfacet
  facet normal 0 -1 0
    outer loop
      vertex 86 61 -5
      vertex 87.4 61 1.08412e-015
      vertex 86 61 7.5
    endloop
  endfacet
  facet normal 0 -1 0
    outer loop
      vertex 86 61 7.5
      vertex 89.8 61 1.38564
      vertex 93 61 7.5
    endloop
  endfacet
  facet normal 0 -1 0
    outer loop
      vertex 90.6 61 8.88178e-016
      vertex 93 61 7.5
      vertex 89.8 61 1.38564
    endloop
  endfacet
  facet normal 0 -1 0
    outer loop
      vertex 90.6 61 8.88178e-016
      vertex 93 61 -5
      vertex 93 61 7.5
    endloop
  endfacet
  facet normal 0 -1 0
    outer loop
      vertex 89.8 61 -1.38564
      vertex 93 61 -5
      vertex 90.6 61 8.88178e-016
    endloop
  endfacet
  facet normal 0 -1 0
    outer loop
      vertex 93 61 -5
      vertex 89.8 61 -1.38564
      vertex 86 61 -5
    endloop
  endfacet
  facet normal 0 -1 0
    outer loop
      vertex 29.8 61 1.38564
      vertex 62.88 61 0.831384
      vertex 63.2 61 1.38564
    endloop
  endfacet
  facet normal 0 -1 0
    outer loop
      vertex 30.6 61 8.88178e-016
      vertex 62.88 61 0.831384
      vertex 29.8 61 1.38564
    endloop
  endfacet
  facet normal 0 -1 0
    outer loop
      vertex 62.88 61 0.831384
      vertex 30.6 61 8.88178e-016
      vertex 62.4 61 1.08412e-015
    endloop
  endfacet
  facet normal 0 -1 0
    outer loop
      vertex 30.6 61 8.88178e-016
      vertex 62.72 61 -0.554256
      vertex 62.4 61 1.08412e-015
    endloop
  endfacet
  facet normal 0 -1 0
    outer loop
      vertex 29.8 61 -1.38564
      vertex 62.72 61 -0.554256
      vertex 30.6 61 8.88178e-016
    endloop
  endfacet
  facet normal 0 -1 -0
    outer loop
      vertex 62.72 61 -0.554256
      vertex 29.8 61 -1.38564
      vertex 63.2 61 -1.38564
    endloop
  endfacet
  facet normal 0 -1 0
    outer loop
      vertex 29.8 61 1.38564
      vertex 11 61 7.5
      vertex 28.2 61 1.38564
    endloop
  endfacet
  facet normal 0 -1 0
    outer loop
      vertex 11 61 7.5
      vertex 27.88 61 0.831384
      vertex 28.2 61 1.38564
    endloop
  endfacet
  facet normal 0 -1 0
    outer loop
      vertex 11 61 7.5
      vertex 27.4 61 1.08412e-015
      vertex 27.88 61 0.831384
    endloop
  endfacet
  facet normal 0 -1 0
    outer loop
      vertex 11 61 -5
      vertex 27.4 61 1.08412e-015
      vertex 11 61 7.5
    endloop
  endfacet
  facet normal 0 -1 -0
    outer loop
      vertex 27.4 61 1.08412e-015
      vertex 11 61 -5
      vertex 27.72 61 -0.554256
    endloop
  endfacet
  facet normal 0 -1 0
    outer loop
      vertex 11 61 -5
      vertex 29.8 61 -1.38564
      vertex 28.2 61 -1.38564
    endloop
  endfacet
  facet normal 0 -1 -0
    outer loop
      vertex 29.8 61 -1.38564
      vertex 11 61 -5
      vertex 63.2 61 -1.38564
    endloop
  endfacet
  facet normal 0 -1 0
    outer loop
      vertex 83 61 -5
      vertex 63.2 61 -1.38564
      vertex 11 61 -5
    endloop
  endfacet
  facet normal 0 -1 -0
    outer loop
      vertex 27.72 61 -0.554256
      vertex 11 61 -5
      vertex 28.2 61 -1.38564
    endloop
  endfacet
  facet normal 0 -1 0
    outer loop
      vertex 63.2 61 1.38564
      vertex 11 61 7.5
      vertex 29.8 61 1.38564
    endloop
  endfacet
  facet normal 0 -1 0
    outer loop
      vertex 11 61 7.5
      vertex 63.2 61 1.38564
      vertex 83 61 7.5
    endloop
  endfacet
  facet normal 0 -1 0
    outer loop
      vertex 64.8 61 1.38564
      vertex 83 61 7.5
      vertex 63.2 61 1.38564
    endloop
  endfacet
  facet normal 0 -1 0
    outer loop
      vertex 65.6 61 8.88178e-016
      vertex 83 61 7.5
      vertex 64.8 61 1.38564
    endloop
  endfacet
  facet normal 0 -1 0
    outer loop
      vertex 83 61 -5
      vertex 65.6 61 8.88178e-016
      vertex 64.8 61 -1.38564
    endloop
  endfacet
  facet normal 0 -1 0
    outer loop
      vertex 65.6 61 8.88178e-016
      vertex 83 61 -5
      vertex 83 61 7.5
    endloop
  endfacet
  facet normal 0 -1 0
    outer loop
      vertex 63.2 61 -1.38564
      vertex 83 61 -5
      vertex 64.8 61 -1.38564
    endloop
  endfacet
  facet normal 0 -1 0
    outer loop
      vertex 0 61 7.5
      vertex 3.2 61 1.38564
      vertex 8 61 7.5
    endloop
  endfacet
  facet normal 0 -1 0
    outer loop
      vertex 0 61 7.5
      vertex 2.88 61 0.831384
      vertex 3.2 61 1.38564
    endloop
  endfacet
  facet normal 0 -1 0
    outer loop
      vertex 0 61 7.5
      vertex 2.4 61 1.08412e-015
      vertex 2.88 61 0.831384
    endloop
  endfacet
  facet normal 0 -1 -0
    outer loop
      vertex 3.2 61 -1.38564
      vertex 0 61 -5
      vertex 4.8 61 -1.38564
    endloop
  endfacet
  facet normal 0 -1 -0
    outer loop
      vertex 2.72 61 -0.554256
      vertex 0 61 -5
      vertex 3.2 61 -1.38564
    endloop
  endfacet
  facet normal 0 -1 -0
    outer loop
      vertex 2.4 61 1.08412e-015
      vertex 0 61 -5
      vertex 2.72 61 -0.554256
    endloop
  endfacet
  facet normal 0 -1 0
    outer loop
      vertex 0 61 -5
      vertex 2.4 61 1.08412e-015
      vertex 0 61 7.5
    endloop
  endfacet
  facet normal 0 -1 0
    outer loop
      vertex 4.8 61 1.38564
      vertex 8 61 7.5
      vertex 3.2 61 1.38564
    endloop
  endfacet
  facet normal 0 -1 0
    outer loop
      vertex 5.6 61 8.88178e-016
      vertex 8 61 7.5
      vertex 4.8 61 1.38564
    endloop
  endfacet
  facet normal 0 -1 0
    outer loop
      vertex 5.6 61 8.88178e-016
      vertex 8 61 -5
      vertex 8 61 7.5
    endloop
  endfacet
  facet normal 0 -1 0
    outer loop
      vertex 4.8 61 -1.38564
      vertex 8 61 -5
      vertex 5.6 61 8.88178e-016
    endloop
  endfacet
  facet normal 0 -1 0
    outer loop
      vertex 8 61 -5
      vertex 4.8 61 -1.38564
      vertex 0 61 -5
    endloop
  endfacet
  facet normal 0 1 -0
    outer loop
      vertex 28.04 63 1.10851
      vertex 4.8 63 1.38564
      vertex 28.2 63 1.38564
    endloop
  endfacet
  facet normal 0 1 0
    outer loop
      vertex 5.6 63 4.44089e-016
      vertex 28.04 63 1.10851
      vertex 27.4 63 6.40026e-016
    endloop
  endfacet
  facet normal 0 1 0
    outer loop
      vertex 28.04 63 1.10851
      vertex 5.6 63 4.44089e-016
      vertex 4.8 63 1.38564
    endloop
  endfacet
  facet normal 0 1 0
    outer loop
      vertex 27.56 63 -0.277128
      vertex 5.6 63 4.44089e-016
      vertex 27.4 63 6.40026e-016
    endloop
  endfacet
  facet normal 0 1 0
    outer loop
      vertex 4.8 63 -1.38564
      vertex 27.56 63 -0.277128
      vertex 28.2 63 -1.38564
    endloop
  endfacet
  facet normal 0 1 0
    outer loop
      vertex 27.56 63 -0.277128
      vertex 4.8 63 -1.38564
      vertex 5.6 63 4.44089e-016
    endloop
  endfacet
  facet normal 0 1 -0
    outer loop
      vertex 63.04 63 1.10851
      vertex 29.8 63 1.38564
      vertex 63.2 63 1.38564
    endloop
  endfacet
  facet normal 0 1 -0
    outer loop
      vertex 62.4 63 6.40026e-016
      vertex 29.8 63 1.38564
      vertex 63.04 63 1.10851
    endloop
  endfacet
  facet normal 0 1 0
    outer loop
      vertex 62.4 63 6.40026e-016
      vertex 30.6 63 4.44089e-016
      vertex 29.8 63 1.38564
    endloop
  endfacet
  facet normal 0 1 0
    outer loop
      vertex 62.56 63 -0.277128
      vertex 30.6 63 4.44089e-016
      vertex 62.4 63 6.40026e-016
    endloop
  endfacet
  facet normal 0 1 0
    outer loop
      vertex 63.2 63 -1.38564
      vertex 30.6 63 4.44089e-016
      vertex 62.56 63 -0.277128
    endloop
  endfacet
  facet normal 0 1 0
    outer loop
      vertex 30.6 63 4.44089e-016
      vertex 63.2 63 -1.38564
      vertex 29.8 63 -1.38564
    endloop
  endfacet
  facet normal 0 1 -0
    outer loop
      vertex 88.04 63 1.10851
      vertex 64.8 63 1.38564
      vertex 88.2 63 1.38564
    endloop
  endfacet
  facet normal 0 1 0
    outer loop
      vertex 65.6 63 4.44089e-016
      vertex 88.04 63 1.10851
      vertex 87.4 63 6.40026e-016
    endloop
  endfacet
  facet normal 0 1 0
    outer loop
      vertex 88.04 63 1.10851
      vertex 65.6 63 4.44089e-016
      vertex 64.8 63 1.38564
    endloop
  endfacet
  facet normal 0 1 0
    outer loop
      vertex 87.56 63 -0.277128
      vertex 65.6 63 4.44089e-016
      vertex 87.4 63 6.40026e-016
    endloop
  endfacet
  facet normal 0 1 0
    outer loop
      vertex 64.8 63 -1.38564
      vertex 87.56 63 -0.277128
      vertex 88.2 63 -1.38564
    endloop
  endfacet
  facet normal 0 1 0
    outer loop
      vertex 87.56 63 -0.277128
      vertex 64.8 63 -1.38564
      vertex 65.6 63 4.44089e-016
    endloop
  endfacet
  facet normal 0 1 0
    outer loop
      vertex 88.2 63 1.38564
      vertex 96 63 7.5
      vertex 89.8 63 1.38564
    endloop
  endfacet
  facet normal 0 1 0
    outer loop
      vertex 96 63 7.5
      vertex 90.6 63 4.44089e-016
      vertex 89.8 63 1.38564
    endloop
  endfacet
  facet normal 0 1 -0
    outer loop
      vertex 96 63 -5
      vertex 90.6 63 4.44089e-016
      vertex 96 63 7.5
    endloop
  endfacet
  facet normal 0 1 0
    outer loop
      vertex 96 63 -5
      vertex 88.2 63 -1.38564
      vertex 89.8 63 -1.38564
    endloop
  endfacet
  facet normal 0 1 0
    outer loop
      vertex 88.2 63 -1.38564
      vertex 96 63 -5
      vertex 64.8 63 -1.38564
    endloop
  endfacet
  facet normal 0 1 0
    outer loop
      vertex 64.8 63 -1.38564
      vertex 96 63 -5
      vertex 63.2 63 -1.38564
    endloop
  endfacet
  facet normal 0 1 0
    outer loop
      vertex 63.2 63 -1.38564
      vertex 96 63 -5
      vertex 29.8 63 -1.38564
    endloop
  endfacet
  facet normal 0 1 0
    outer loop
      vertex -3 63 -5
      vertex 29.8 63 -1.38564
      vertex 96 63 -5
    endloop
  endfacet
  facet normal 0 1 0
    outer loop
      vertex 29.8 63 -1.38564
      vertex -3 63 -5
      vertex 28.2 63 -1.38564
    endloop
  endfacet
  facet normal 0 1 0
    outer loop
      vertex 28.2 63 -1.38564
      vertex -3 63 -5
      vertex 4.8 63 -1.38564
    endloop
  endfacet
  facet normal 0 1 0
    outer loop
      vertex 90.6 63 4.44089e-016
      vertex 96 63 -5
      vertex 89.8 63 -1.38564
    endloop
  endfacet
  facet normal 0 1 0
    outer loop
      vertex 64.8 63 1.38564
      vertex 96 63 7.5
      vertex 88.2 63 1.38564
    endloop
  endfacet
  facet normal 0 1 0
    outer loop
      vertex 63.2 63 1.38564
      vertex 96 63 7.5
      vertex 64.8 63 1.38564
    endloop
  endfacet
  facet normal 0 1 0
    outer loop
      vertex 96 63 7.5
      vertex 63.2 63 1.38564
      vertex -3 63 7.5
    endloop
  endfacet
  facet normal 0 1 -0
    outer loop
      vertex 29.8 63 1.38564
      vertex -3 63 7.5
      vertex 63.2 63 1.38564
    endloop
  endfacet
  facet normal 0 1 -0
    outer loop
      vertex 28.2 63 1.38564
      vertex -3 63 7.5
      vertex 29.8 63 1.38564
    endloop
  endfacet
  facet normal 0 1 -0
    outer loop
      vertex 4.8 63 1.38564
      vertex -3 63 7.5
      vertex 28.2 63 1.38564
    endloop
  endfacet
  facet normal 0 1 -0
    outer loop
      vertex 3.2 63 1.38564
      vertex -3 63 7.5
      vertex 4.8 63 1.38564
    endloop
  endfacet
  facet normal 0 1 -0
    outer loop
      vertex 3.04 63 1.10851
      vertex -3 63 7.5
      vertex 3.2 63 1.38564
    endloop
  endfacet
  facet normal 0 1 -0
    outer loop
      vertex 2.4 63 6.40026e-016
      vertex -3 63 7.5
      vertex 3.04 63 1.10851
    endloop
  endfacet
  facet normal 0 1 0
    outer loop
      vertex -3 63 -5
      vertex 2.4 63 6.40026e-016
      vertex 2.56 63 -0.277128
    endloop
  endfacet
  facet normal 0 1 0
    outer loop
      vertex -3 63 -5
      vertex 2.56 63 -0.277128
      vertex 3.2 63 -1.38564
    endloop
  endfacet
  facet normal 0 1 0
    outer loop
      vertex 2.4 63 6.40026e-016
      vertex -3 63 -5
      vertex -3 63 7.5
    endloop
  endfacet
  facet normal 0 1 0
    outer loop
      vertex 4.8 63 -1.38564
      vertex -3 63 -5
      vertex 3.2 63 -1.38564
    endloop
  endfacet
  facet normal -1 0 0
    outer loop
      vertex -3 58 -5
      vertex -3 63 7.5
      vertex -3 63 -5
    endloop
  endfacet
  facet normal -1 -0 0
    outer loop
      vertex -3 63 7.5
      vertex -3 58 -5
      vertex -3 58 7.5
    endloop
  endfacet
  facet normal 0 -1 0
    outer loop
      vertex -3 58 -5
      vertex 0 58 7.5
      vertex -3 58 7.5
    endloop
  endfacet
  facet normal 0 -1 -0
    outer loop
      vertex 0 58 7.5
      vertex -3 58 -5
      vertex 0 58 -5
    endloop
  endfacet
  facet normal -1 0 0
    outer loop
      vertex 8 58 -5
      vertex 8 61 7.5
      vertex 8 61 -5
    endloop
  endfacet
  facet normal -1 -0 0
    outer loop
      vertex 8 61 7.5
      vertex 8 58 -5
      vertex 8 58 7.5
    endloop
  endfacet
  facet normal 1 -0 0
    outer loop
      vertex 11 58 7.5
      vertex 11 61 -5
      vertex 11 61 7.5
    endloop
  endfacet
  facet normal 1 0 0
    outer loop
      vertex 11 61 -5
      vertex 11 58 7.5
      vertex 11 58 -5
    endloop
  endfacet
  facet normal 0 -1 0
    outer loop
      vertex 8 58 -5
      vertex 11 58 7.5
      vertex 8 58 7.5
    endloop
  endfacet
  facet normal 0 -1 -0
    outer loop
      vertex 11 58 7.5
      vertex 8 58 -5
      vertex 11 58 -5
    endloop
  endfacet
  facet normal 1 -0 0
    outer loop
      vertex 96 58 7.5
      vertex 96 63 -5
      vertex 96 63 7.5
    endloop
  endfacet
  facet normal 1 0 0
    outer loop
      vertex 96 63 -5
      vertex 96 58 7.5
      vertex 96 58 -5
    endloop
  endfacet
  facet normal 0 -1 0
    outer loop
      vertex 93 58 -5
      vertex 96 58 7.5
      vertex 93 58 7.5
    endloop
  endfacet
  facet normal 0 -1 -0
    outer loop
      vertex 96 58 7.5
      vertex 93 58 -5
      vertex 96 58 -5
    endloop
  endfacet
  facet normal -1 0 0
    outer loop
      vertex 83 58 -5
      vertex 83 61 7.5
      vertex 83 61 -5
    endloop
  endfacet
  facet normal -1 -0 0
    outer loop
      vertex 83 61 7.5
      vertex 83 58 -5
      vertex 83 58 7.5
    endloop
  endfacet
  facet normal 1 -0 0
    outer loop
      vertex 86 58 7.5
      vertex 86 61 -5
      vertex 86 61 7.5
    endloop
  endfacet
  facet normal 1 0 0
    outer loop
      vertex 86 61 -5
      vertex 86 58 7.5
      vertex 86 58 -5
    endloop
  endfacet
  facet normal 0 -1 0
    outer loop
      vertex 83 58 -5
      vertex 86 58 7.5
      vertex 83 58 7.5
    endloop
  endfacet
  facet normal 0 -1 -0
    outer loop
      vertex 86 58 7.5
      vertex 83 58 -5
      vertex 86 58 -5
    endloop
  endfacet
  facet normal -0.866025 -1.11022e-016 -0.5
    outer loop
      vertex 5.6 61 8.88178e-016
      vertex 4.8 63 1.38564
      vertex 5.6 63 4.44089e-016
    endloop
  endfacet
  facet normal -0.866025 -0 -0.5
    outer loop
      vertex 4.8 63 1.38564
      vertex 5.6 61 8.88178e-016
      vertex 4.8 61 1.38564
    endloop
  endfacet
  facet normal 0 0 -1
    outer loop
      vertex 3.2 61 1.38564
      vertex 4.8 63 1.38564
      vertex 4.8 61 1.38564
    endloop
  endfacet
  facet normal -0 0 -1
    outer loop
      vertex 4.8 63 1.38564
      vertex 3.2 61 1.38564
      vertex 3.2 63 1.38564
    endloop
  endfacet
  facet normal 0.866026 1.11022e-016 0.5
    outer loop
      vertex 2.4 61 1.08412e-015
      vertex 2.56 63 -0.277128
      vertex 2.4 63 6.40026e-016
    endloop
  endfacet
  facet normal 0.866025 5.16191e-008 0.5
    outer loop
      vertex 2.56 63 -0.277128
      vertex 2.4 61 1.08412e-015
      vertex 2.72 61 -0.554256
    endloop
  endfacet
  facet normal -0 0 1
    outer loop
      vertex 3.2 63 -1.38564
      vertex 4.8 61 -1.38564
      vertex 4.8 63 -1.38564
    endloop
  endfacet
  facet normal 0 0 1
    outer loop
      vertex 4.8 61 -1.38564
      vertex 3.2 63 -1.38564
      vertex 3.2 61 -1.38564
    endloop
  endfacet
  facet normal -0.866025 0 0.5
    outer loop
      vertex 4.8 61 -1.38564
      vertex 5.6 63 4.44089e-016
      vertex 4.8 63 -1.38564
    endloop
  endfacet
  facet normal -0.866025 1.11022e-016 0.5
    outer loop
      vertex 5.6 63 4.44089e-016
      vertex 4.8 61 -1.38564
      vertex 5.6 61 8.88178e-016
    endloop
  endfacet
  facet normal 0.866025 2.39469e-008 0.5
    outer loop
      vertex 2.72 61 -0.554256
      vertex 3.2 63 -1.38564
      vertex 2.56 63 -0.277128
    endloop
  endfacet
  facet normal 0.866025 0 0.5
    outer loop
      vertex 3.2 63 -1.38564
      vertex 2.72 61 -0.554256
      vertex 3.2 61 -1.38564
    endloop
  endfacet
  facet normal 0.866025 0 -0.5
    outer loop
      vertex 3.2 61 1.38564
      vertex 3.04 63 1.10851
      vertex 3.2 63 1.38564
    endloop
  endfacet
  facet normal 0.866025 5.90697e-008 -0.5
    outer loop
      vertex 3.04 63 1.10851
      vertex 3.2 61 1.38564
      vertex 2.88 61 0.831384
    endloop
  endfacet
  facet normal 0.866025 5.90697e-008 -0.5
    outer loop
      vertex 2.88 61 0.831384
      vertex 2.4 63 6.40026e-016
      vertex 3.04 63 1.10851
    endloop
  endfacet
  facet normal 0.866025 -1.11022e-016 -0.5
    outer loop
      vertex 2.4 63 6.40026e-016
      vertex 2.88 61 0.831384
      vertex 2.4 61 1.08412e-015
    endloop
  endfacet
  facet normal -0.866027 -1.11022e-016 -0.499998
    outer loop
      vertex 90.6 61 8.88178e-016
      vertex 89.8 63 1.38564
      vertex 90.6 63 4.44089e-016
    endloop
  endfacet
  facet normal -0.866027 -0 -0.499998
    outer loop
      vertex 89.8 63 1.38564
      vertex 90.6 61 8.88178e-016
      vertex 89.8 61 1.38564
    endloop
  endfacet
  facet normal 0 0 -1
    outer loop
      vertex 88.2 61 1.38564
      vertex 89.8 63 1.38564
      vertex 89.8 61 1.38564
    endloop
  endfacet
  facet normal -0 0 -1
    outer loop
      vertex 89.8 63 1.38564
      vertex 88.2 61 1.38564
      vertex 88.2 63 1.38564
    endloop
  endfacet
  facet normal 0.866031 1.1102e-016 0.499991
    outer loop
      vertex 87.4 61 1.08412e-015
      vertex 87.56 63 -0.277128
      vertex 87.4 63 6.40026e-016
    endloop
  endfacet
  facet normal 0.866026 1.65181e-006 0.5
    outer loop
      vertex 87.56 63 -0.277128
      vertex 87.4 61 1.08412e-015
      vertex 87.72 61 -0.554256
    endloop
  endfacet
  facet normal -0 0 1
    outer loop
      vertex 88.2 63 -1.38564
      vertex 89.8 61 -1.38564
      vertex 89.8 63 -1.38564
    endloop
  endfacet
  facet normal 0 0 1
    outer loop
      vertex 89.8 61 -1.38564
      vertex 88.2 63 -1.38564
      vertex 88.2 61 -1.38564
    endloop
  endfacet
  facet normal -0.866027 0 0.499998
    outer loop
      vertex 89.8 61 -1.38564
      vertex 90.6 63 4.44089e-016
      vertex 89.8 63 -1.38564
    endloop
  endfacet
  facet normal -0.866027 1.11022e-016 0.499998
    outer loop
      vertex 90.6 63 4.44089e-016
      vertex 89.8 61 -1.38564
      vertex 90.6 61 8.88178e-016
    endloop
  endfacet
  facet normal 0.866026 1.64995e-006 0.5
    outer loop
      vertex 87.72 61 -0.554256
      vertex 88.2 63 -1.38564
      vertex 87.56 63 -0.277128
    endloop
  endfacet
  facet normal 0.866027 0 0.499997
    outer loop
      vertex 88.2 63 -1.38564
      vertex 87.72 61 -0.554256
      vertex 88.2 61 -1.38564
    endloop
  endfacet
  facet normal 0.866031 0 -0.499991
    outer loop
      vertex 88.2 61 1.38564
      vertex 88.04 63 1.10851
      vertex 88.2 63 1.38564
    endloop
  endfacet
  facet normal 0.866026 -1.64436e-006 -0.5
    outer loop
      vertex 88.04 63 1.10851
      vertex 88.2 61 1.38564
      vertex 87.88 61 0.831384
    endloop
  endfacet
  facet normal 0.866026 -1.64436e-006 -0.5
    outer loop
      vertex 87.88 61 0.831384
      vertex 87.4 63 6.40026e-016
      vertex 88.04 63 1.10851
    endloop
  endfacet
  facet normal 0.866027 -1.11022e-016 -0.499997
    outer loop
      vertex 87.4 63 6.40026e-016
      vertex 87.88 61 0.831384
      vertex 87.4 61 1.08412e-015
    endloop
  endfacet
  facet normal -0.866027 -1.11022e-016 -0.499998
    outer loop
      vertex 65.6 61 8.88178e-016
      vertex 64.8 63 1.38564
      vertex 65.6 63 4.44089e-016
    endloop
  endfacet
  facet normal -0.866027 -0 -0.499998
    outer loop
      vertex 64.8 63 1.38564
      vertex 65.6 61 8.88178e-016
      vertex 64.8 61 1.38564
    endloop
  endfacet
  facet normal 0 0 -1
    outer loop
      vertex 63.2 61 1.38564
      vertex 64.8 63 1.38564
      vertex 64.8 61 1.38564
    endloop
  endfacet
  facet normal -0 0 -1
    outer loop
      vertex 64.8 63 1.38564
      vertex 63.2 61 1.38564
      vertex 63.2 63 1.38564
    endloop
  endfacet
  facet normal 0.866026 1.11022e-016 0.5
    outer loop
      vertex 62.4 61 1.08412e-015
      vertex 62.56 63 -0.277128
      vertex 62.4 63 6.40026e-016
    endloop
  endfacet
  facet normal 0.866026 1.40946e-016 0.5
    outer loop
      vertex 62.56 63 -0.277128
      vertex 62.4 61 1.08412e-015
      vertex 62.72 61 -0.554256
    endloop
  endfacet
  facet normal 0.866026 0 -0.5
    outer loop
      vertex 63.2 61 1.38564
      vertex 63.04 63 1.10851
      vertex 63.2 63 1.38564
    endloop
  endfacet
  facet normal 0.866026 7.45058e-009 -0.5
    outer loop
      vertex 63.04 63 1.10851
      vertex 63.2 61 1.38564
      vertex 62.88 61 0.831384
    endloop
  endfacet
  facet normal 0.866026 7.45058e-009 -0.5
    outer loop
      vertex 62.88 61 0.831384
      vertex 62.4 63 6.40026e-016
      vertex 63.04 63 1.10851
    endloop
  endfacet
  facet normal 0.866026 -1.11022e-016 -0.5
    outer loop
      vertex 62.4 63 6.40026e-016
      vertex 62.88 61 0.831384
      vertex 62.4 61 1.08412e-015
    endloop
  endfacet
  facet normal -0 0 1
    outer loop
      vertex 63.2 63 -1.38564
      vertex 64.8 61 -1.38564
      vertex 64.8 63 -1.38564
    endloop
  endfacet
  facet normal 0 0 1
    outer loop
      vertex 64.8 61 -1.38564
      vertex 63.2 63 -1.38564
      vertex 63.2 61 -1.38564
    endloop
  endfacet
  facet normal -0.866027 0 0.499998
    outer loop
      vertex 64.8 61 -1.38564
      vertex 65.6 63 4.44089e-016
      vertex 64.8 63 -1.38564
    endloop
  endfacet
  facet normal -0.866027 1.11022e-016 0.499998
    outer loop
      vertex 65.6 63 4.44089e-016
      vertex 64.8 61 -1.38564
      vertex 65.6 61 8.88178e-016
    endloop
  endfacet
  facet normal 0.866026 -1.86264e-009 0.5
    outer loop
      vertex 62.72 61 -0.554256
      vertex 63.2 63 -1.38564
      vertex 62.56 63 -0.277128
    endloop
  endfacet
  facet normal 0.866026 0 0.5
    outer loop
      vertex 63.2 63 -1.38564
      vertex 62.72 61 -0.554256
      vertex 63.2 61 -1.38564
    endloop
  endfacet
  facet normal -0.866025 -1.11022e-016 -0.500001
    outer loop
      vertex 30.6 61 8.88178e-016
      vertex 29.8 63 1.38564
      vertex 30.6 63 4.44089e-016
    endloop
  endfacet
  facet normal -0.866025 -0 -0.500001
    outer loop
      vertex 29.8 63 1.38564
      vertex 30.6 61 8.88178e-016
      vertex 29.8 61 1.38564
    endloop
  endfacet
  facet normal 0 0 -1
    outer loop
      vertex 28.2 61 1.38564
      vertex 29.8 63 1.38564
      vertex 29.8 61 1.38564
    endloop
  endfacet
  facet normal -0 0 -1
    outer loop
      vertex 29.8 63 1.38564
      vertex 28.2 61 1.38564
      vertex 28.2 63 1.38564
    endloop
  endfacet
  facet normal 0.866026 1.11022e-016 0.5
    outer loop
      vertex 27.4 61 1.08412e-015
      vertex 27.56 63 -0.277128
      vertex 27.4 63 6.40026e-016
    endloop
  endfacet
  facet normal 0.866026 1.40946e-016 0.5
    outer loop
      vertex 27.56 63 -0.277128
      vertex 27.4 61 1.08412e-015
      vertex 27.72 61 -0.554256
    endloop
  endfacet
  facet normal -0 0 1
    outer loop
      vertex 28.2 63 -1.38564
      vertex 29.8 61 -1.38564
      vertex 29.8 63 -1.38564
    endloop
  endfacet
  facet normal 0 0 1
    outer loop
      vertex 29.8 61 -1.38564
      vertex 28.2 63 -1.38564
      vertex 28.2 61 -1.38564
    endloop
  endfacet
  facet normal -0.866025 0 0.500001
    outer loop
      vertex 29.8 61 -1.38564
      vertex 30.6 63 4.44089e-016
      vertex 29.8 63 -1.38564
    endloop
  endfacet
  facet normal -0.866025 1.11022e-016 0.500001
    outer loop
      vertex 30.6 63 4.44089e-016
      vertex 29.8 61 -1.38564
      vertex 30.6 61 8.88178e-016
    endloop
  endfacet
  facet normal 0.866025 -2.08339e-007 0.500001
    outer loop
      vertex 27.72 61 -0.554256
      vertex 28.2 63 -1.38564
      vertex 27.56 63 -0.277128
    endloop
  endfacet
  facet normal 0.866025 0 0.500001
    outer loop
      vertex 28.2 63 -1.38564
      vertex 27.72 61 -0.554256
      vertex 28.2 61 -1.38564
    endloop
  endfacet
  facet normal 0.866026 0 -0.5
    outer loop
      vertex 28.2 61 1.38564
      vertex 28.04 63 1.10851
      vertex 28.2 63 1.38564
    endloop
  endfacet
  facet normal 0.866024 -4.05502e-007 -0.500002
    outer loop
      vertex 28.04 63 1.10851
      vertex 28.2 61 1.38564
      vertex 27.88 61 0.831384
    endloop
  endfacet
  facet normal 0.866025 -6.11979e-007 -0.500001
    outer loop
      vertex 27.88 61 0.831384
      vertex 27.4 63 6.40026e-016
      vertex 28.04 63 1.10851
    endloop
  endfacet
  facet normal 0.866026 -1.11022e-016 -0.5
    outer loop
      vertex 27.4 63 6.40026e-016
      vertex 27.88 61 0.831384
      vertex 27.4 61 1.08412e-015
    endloop
  endfacet
endsolid OpenSCAD_Model
