solid OpenSCAD_Model
  facet normal -1 0 0
    outer loop
      vertex 0 0 0
      vertex 0 3 12.5
      vertex 0 3 0
    endloop
  endfacet
  facet normal -1 -0 0
    outer loop
      vertex 0 3 12.5
      vertex 0 0 0
      vertex 0 0 12.5
    endloop
  endfacet
  facet normal 0 0 1
    outer loop
      vertex 20.5 100 12.5
      vertex 15.5 100 12.5
      vertex 20.5 3 12.5
    endloop
  endfacet
  facet normal 0 0 1
    outer loop
      vertex 34.5 100 12.5
      vertex 29.5 100 12.5
      vertex 34.5 3 12.5
    endloop
  endfacet
  facet normal -0 0 1
    outer loop
      vertex 34.5 3 12.5
      vertex 50 0 12.5
      vertex 50 3 12.5
    endloop
  endfacet
  facet normal 0 0 1
    outer loop
      vertex 29.5 3 12.5
      vertex 34.5 3 12.5
      vertex 29.5 100 12.5
    endloop
  endfacet
  facet normal -0 0 1
    outer loop
      vertex 29.5 3 12.5
      vertex 50 0 12.5
      vertex 34.5 3 12.5
    endloop
  endfacet
  facet normal -0 0 1
    outer loop
      vertex 20.5 3 12.5
      vertex 50 0 12.5
      vertex 29.5 3 12.5
    endloop
  endfacet
  facet normal 0 0 1
    outer loop
      vertex 15.5 3 12.5
      vertex 20.5 3 12.5
      vertex 15.5 100 12.5
    endloop
  endfacet
  facet normal 0 0 1
    outer loop
      vertex 0 0 12.5
      vertex 20.5 3 12.5
      vertex 15.5 3 12.5
    endloop
  endfacet
  facet normal 0 0 1
    outer loop
      vertex 0 0 12.5
      vertex 15.5 3 12.5
      vertex 0 3 12.5
    endloop
  endfacet
  facet normal 0 0 1
    outer loop
      vertex 20.5 3 12.5
      vertex 0 0 12.5
      vertex 50 0 12.5
    endloop
  endfacet
  facet normal 1 -0 0
    outer loop
      vertex 50 0 12.5
      vertex 50 3 0
      vertex 50 3 12.5
    endloop
  endfacet
  facet normal 1 0 0
    outer loop
      vertex 50 3 0
      vertex 50 0 12.5
      vertex 50 0 0
    endloop
  endfacet
  facet normal 0 0 -1
    outer loop
      vertex 50 0 0
      vertex 34.5 3 0
      vertex 50 3 0
    endloop
  endfacet
  facet normal 0 0 -1
    outer loop
      vertex 34.5 3 0
      vertex 29.5 3 0
      vertex 34.5 100 0
    endloop
  endfacet
  facet normal 0 0 -1
    outer loop
      vertex 50 0 0
      vertex 29.5 3 0
      vertex 34.5 3 0
    endloop
  endfacet
  facet normal 0 0 -1
    outer loop
      vertex 50 0 0
      vertex 20.5 3 0
      vertex 29.5 3 0
    endloop
  endfacet
  facet normal 0 0 -1
    outer loop
      vertex 20.5 3 0
      vertex 15.5 3 0
      vertex 20.5 100 0
    endloop
  endfacet
  facet normal 0 0 -1
    outer loop
      vertex 0 0 0
      vertex 20.5 3 0
      vertex 50 0 0
    endloop
  endfacet
  facet normal -0 0 -1
    outer loop
      vertex 20.5 3 0
      vertex 0 0 0
      vertex 15.5 3 0
    endloop
  endfacet
  facet normal -0 0 -1
    outer loop
      vertex 15.5 3 0
      vertex 0 0 0
      vertex 0 3 0
    endloop
  endfacet
  facet normal -0 0 -1
    outer loop
      vertex 34.5 100 0
      vertex 29.5 3 0
      vertex 29.5 100 0
    endloop
  endfacet
  facet normal -0 0 -1
    outer loop
      vertex 20.5 100 0
      vertex 15.5 3 0
      vertex 15.5 100 0
    endloop
  endfacet
  facet normal 0 -1 0
    outer loop
      vertex 10.2 0 5.69282
      vertex 43.2 0 6.38564
      vertex 9.8 0 6.38564
    endloop
  endfacet
  facet normal 0 -1 0
    outer loop
      vertex 42.4 0 5
      vertex 10.2 0 5.69282
      vertex 10.6 0 5
    endloop
  endfacet
  facet normal 0 -1 0
    outer loop
      vertex 10.2 0 5.69282
      vertex 42.4 0 5
      vertex 43.2 0 6.38564
    endloop
  endfacet
  facet normal 0 -1 0
    outer loop
      vertex 9.8 0 3.61436
      vertex 42.4 0 5
      vertex 10.6 0 5
    endloop
  endfacet
  facet normal 0 -1 -0
    outer loop
      vertex 42.4 0 5
      vertex 9.8 0 3.61436
      vertex 43.2 0 3.61436
    endloop
  endfacet
  facet normal 0 -1 0
    outer loop
      vertex 9 0 6.38564
      vertex 0 0 12.5
      vertex 8.2 0 6.38564
    endloop
  endfacet
  facet normal 0 -1 0
    outer loop
      vertex 0 0 12.5
      vertex 7.4 0 5
      vertex 8.2 0 6.38564
    endloop
  endfacet
  facet normal 0 -1 0
    outer loop
      vertex 0 0 0
      vertex 7.4 0 5
      vertex 0 0 12.5
    endloop
  endfacet
  facet normal 0 -1 0
    outer loop
      vertex 0 0 0
      vertex 9.8 0 3.61436
      vertex 8.2 0 3.61436
    endloop
  endfacet
  facet normal 0 -1 0
    outer loop
      vertex 9.8 0 3.61436
      vertex 50 0 0
      vertex 43.2 0 3.61436
    endloop
  endfacet
  facet normal 0 -1 -0
    outer loop
      vertex 9.8 0 3.61436
      vertex 0 0 0
      vertex 50 0 0
    endloop
  endfacet
  facet normal 0 -1 -0
    outer loop
      vertex 7.4 0 5
      vertex 0 0 0
      vertex 8.2 0 3.61436
    endloop
  endfacet
  facet normal 0 -1 0
    outer loop
      vertex 9.8 0 6.38564
      vertex 0 0 12.5
      vertex 9 0 6.38564
    endloop
  endfacet
  facet normal 0 -1 0
    outer loop
      vertex 0 0 12.5
      vertex 9.8 0 6.38564
      vertex 50 0 12.5
    endloop
  endfacet
  facet normal 0 -1 0
    outer loop
      vertex 43.2 0 6.38564
      vertex 50 0 12.5
      vertex 9.8 0 6.38564
    endloop
  endfacet
  facet normal 0 -1 0
    outer loop
      vertex 44 0 6.38564
      vertex 50 0 12.5
      vertex 43.2 0 6.38564
    endloop
  endfacet
  facet normal 0 -1 0
    outer loop
      vertex 44.8 0 6.38564
      vertex 50 0 12.5
      vertex 44 0 6.38564
    endloop
  endfacet
  facet normal 0 -1 0
    outer loop
      vertex 45.2 0 5.69282
      vertex 50 0 12.5
      vertex 44.8 0 6.38564
    endloop
  endfacet
  facet normal 0 -1 0
    outer loop
      vertex 45.6 0 5
      vertex 50 0 12.5
      vertex 45.2 0 5.69282
    endloop
  endfacet
  facet normal 0 -1 0
    outer loop
      vertex 50 0 0
      vertex 45.6 0 5
      vertex 44.8 0 3.61436
    endloop
  endfacet
  facet normal 0 -1 0
    outer loop
      vertex 45.6 0 5
      vertex 50 0 0
      vertex 50 0 12.5
    endloop
  endfacet
  facet normal 0 -1 0
    outer loop
      vertex 43.2 0 3.61436
      vertex 50 0 0
      vertex 44.8 0 3.61436
    endloop
  endfacet
  facet normal 0 1 0
    outer loop
      vertex 43.76 3 6.38564
      vertex 50 3 12.5
      vertex 44.8 3 6.38564
    endloop
  endfacet
  facet normal 0 1 0
    outer loop
      vertex 50 3 12.5
      vertex 45.32 3 5.48497
      vertex 44.8 3 6.38564
    endloop
  endfacet
  facet normal 0 1 0
    outer loop
      vertex 50 3 12.5
      vertex 45.6 3 5
      vertex 45.32 3 5.48497
    endloop
  endfacet
  facet normal 0 1 -0
    outer loop
      vertex 50 3 0
      vertex 45.6 3 5
      vertex 50 3 12.5
    endloop
  endfacet
  facet normal 0 1 0
    outer loop
      vertex 44.8 3 3.61436
      vertex 50 3 0
      vertex 43.2 3 3.61436
    endloop
  endfacet
  facet normal 0 1 0
    outer loop
      vertex 45.6 3 5
      vertex 50 3 0
      vertex 44.8 3 3.61436
    endloop
  endfacet
  facet normal 0 1 0
    outer loop
      vertex 43.2 3 6.38564
      vertex 50 3 12.5
      vertex 43.76 3 6.38564
    endloop
  endfacet
  facet normal 0 1 0
    outer loop
      vertex 50 3 12.5
      vertex 43.2 3 6.38564
      vertex 34.5 3 12.5
    endloop
  endfacet
  facet normal 0 1 -0
    outer loop
      vertex 42.4 3 5
      vertex 34.5 3 12.5
      vertex 43.2 3 6.38564
    endloop
  endfacet
  facet normal 0 1 0
    outer loop
      vertex 34.5 3 0
      vertex 42.4 3 5
      vertex 43.2 3 3.61436
    endloop
  endfacet
  facet normal 0 1 0
    outer loop
      vertex 42.4 3 5
      vertex 34.5 3 0
      vertex 34.5 3 12.5
    endloop
  endfacet
  facet normal 0 1 0
    outer loop
      vertex 34.5 3 0
      vertex 43.2 3 3.61436
      vertex 50 3 0
    endloop
  endfacet
  facet normal 0 1 0
    outer loop
      vertex 8.76 3 6.38564
      vertex 15.5 3 12.5
      vertex 9.8 3 6.38564
    endloop
  endfacet
  facet normal 0 1 0
    outer loop
      vertex 15.5 3 12.5
      vertex 10.32 3 5.48497
      vertex 9.8 3 6.38564
    endloop
  endfacet
  facet normal 0 1 0
    outer loop
      vertex 15.5 3 12.5
      vertex 10.6 3 5
      vertex 10.32 3 5.48497
    endloop
  endfacet
  facet normal 0 1 -0
    outer loop
      vertex 15.5 3 0
      vertex 10.6 3 5
      vertex 15.5 3 12.5
    endloop
  endfacet
  facet normal 0 1 0
    outer loop
      vertex 9.8 3 3.61436
      vertex 15.5 3 0
      vertex 8.2 3 3.61436
    endloop
  endfacet
  facet normal 0 1 0
    outer loop
      vertex 10.6 3 5
      vertex 15.5 3 0
      vertex 9.8 3 3.61436
    endloop
  endfacet
  facet normal 0 1 0
    outer loop
      vertex 8.2 3 6.38564
      vertex 15.5 3 12.5
      vertex 8.76 3 6.38564
    endloop
  endfacet
  facet normal 0 1 0
    outer loop
      vertex 15.5 3 12.5
      vertex 8.2 3 6.38564
      vertex 0 3 12.5
    endloop
  endfacet
  facet normal 0 1 -0
    outer loop
      vertex 7.4 3 5
      vertex 0 3 12.5
      vertex 8.2 3 6.38564
    endloop
  endfacet
  facet normal 0 1 0
    outer loop
      vertex 0 3 0
      vertex 7.4 3 5
      vertex 8.2 3 3.61436
    endloop
  endfacet
  facet normal 0 1 0
    outer loop
      vertex 7.4 3 5
      vertex 0 3 0
      vertex 0 3 12.5
    endloop
  endfacet
  facet normal 0 1 0
    outer loop
      vertex 0 3 0
      vertex 8.2 3 3.61436
      vertex 15.5 3 0
    endloop
  endfacet
  facet normal 0 1 -0
    outer loop
      vertex 29.5 3 0
      vertex 20.5 3 12.5
      vertex 29.5 3 12.5
    endloop
  endfacet
  facet normal 0 1 0
    outer loop
      vertex 20.5 3 12.5
      vertex 29.5 3 0
      vertex 20.5 3 0
    endloop
  endfacet
  facet normal -0.866025 -3.57173e-007 -0.5
    outer loop
      vertex 45.2 0 5.69282
      vertex 44.8 3 6.38564
      vertex 45.32 3 5.48497
    endloop
  endfacet
  facet normal -0.866024 -0 -0.500002
    outer loop
      vertex 44.8 3 6.38564
      vertex 45.2 0 5.69282
      vertex 44.8 0 6.38564
    endloop
  endfacet
  facet normal -0.866026 0 -0.499998
    outer loop
      vertex 45.6 0 5
      vertex 45.32 3 5.48497
      vertex 45.6 3 5
    endloop
  endfacet
  facet normal -0.866027 -1.10121e-007 -0.499998
    outer loop
      vertex 45.32 3 5.48497
      vertex 45.6 0 5
      vertex 45.2 0 5.69282
    endloop
  endfacet
  facet normal 0.866026 0 -0.5
    outer loop
      vertex 43.2 0 6.38564
      vertex 42.4 3 5
      vertex 43.2 3 6.38564
    endloop
  endfacet
  facet normal 0.866026 0 -0.5
    outer loop
      vertex 42.4 3 5
      vertex 43.2 0 6.38564
      vertex 42.4 0 5
    endloop
  endfacet
  facet normal 0 0 -1
    outer loop
      vertex 43.2 0 6.38564
      vertex 43.76 3 6.38564
      vertex 44 0 6.38564
    endloop
  endfacet
  facet normal -0 0 -1
    outer loop
      vertex 43.76 3 6.38564
      vertex 43.2 0 6.38564
      vertex 43.2 3 6.38564
    endloop
  endfacet
  facet normal 0 0 -1
    outer loop
      vertex 44 0 6.38564
      vertex 44.8 3 6.38564
      vertex 44.8 0 6.38564
    endloop
  endfacet
  facet normal -0 0 -1
    outer loop
      vertex 44.8 3 6.38564
      vertex 44 0 6.38564
      vertex 43.76 3 6.38564
    endloop
  endfacet
  facet normal 0.866026 -0 0.5
    outer loop
      vertex 42.4 0 5
      vertex 43.2 3 3.61436
      vertex 42.4 3 5
    endloop
  endfacet
  facet normal 0.866026 0 0.5
    outer loop
      vertex 43.2 3 3.61436
      vertex 42.4 0 5
      vertex 43.2 0 3.61436
    endloop
  endfacet
  facet normal -0.866026 0 0.5
    outer loop
      vertex 44.8 0 3.61436
      vertex 45.6 3 5
      vertex 44.8 3 3.61436
    endloop
  endfacet
  facet normal -0.866026 0 0.5
    outer loop
      vertex 45.6 3 5
      vertex 44.8 0 3.61436
      vertex 45.6 0 5
    endloop
  endfacet
  facet normal -0 0 1
    outer loop
      vertex 43.2 3 3.61436
      vertex 44.8 0 3.61436
      vertex 44.8 3 3.61436
    endloop
  endfacet
  facet normal 0 0 1
    outer loop
      vertex 44.8 0 3.61436
      vertex 43.2 3 3.61436
      vertex 43.2 0 3.61436
    endloop
  endfacet
  facet normal -0.866026 -1.83399e-008 -0.5
    outer loop
      vertex 10.2 0 5.69282
      vertex 9.8 3 6.38564
      vertex 10.32 3 5.48497
    endloop
  endfacet
  facet normal -0.866026 -0 -0.5
    outer loop
      vertex 9.8 3 6.38564
      vertex 10.2 0 5.69282
      vertex 9.8 0 6.38564
    endloop
  endfacet
  facet normal -0.866025 0 -0.500001
    outer loop
      vertex 10.6 0 5
      vertex 10.32 3 5.48497
      vertex 10.6 3 5
    endloop
  endfacet
  facet normal -0.866025 -8.25906e-008 -0.5
    outer loop
      vertex 10.32 3 5.48497
      vertex 10.6 0 5
      vertex 10.2 0 5.69282
    endloop
  endfacet
  facet normal 0.866025 0 -0.5
    outer loop
      vertex 8.2 0 6.38564
      vertex 7.4 3 5
      vertex 8.2 3 6.38564
    endloop
  endfacet
  facet normal 0.866025 0 -0.5
    outer loop
      vertex 7.4 3 5
      vertex 8.2 0 6.38564
      vertex 7.4 0 5
    endloop
  endfacet
  facet normal 0 0 -1
    outer loop
      vertex 8.2 0 6.38564
      vertex 8.76 3 6.38564
      vertex 9 0 6.38564
    endloop
  endfacet
  facet normal -0 0 -1
    outer loop
      vertex 8.76 3 6.38564
      vertex 8.2 0 6.38564
      vertex 8.2 3 6.38564
    endloop
  endfacet
  facet normal 0 0 -1
    outer loop
      vertex 9 0 6.38564
      vertex 9.8 3 6.38564
      vertex 9.8 0 6.38564
    endloop
  endfacet
  facet normal -0 0 -1
    outer loop
      vertex 9.8 3 6.38564
      vertex 9 0 6.38564
      vertex 8.76 3 6.38564
    endloop
  endfacet
  facet normal -0.866025 0 0.5
    outer loop
      vertex 9.8 0 3.61436
      vertex 10.6 3 5
      vertex 9.8 3 3.61436
    endloop
  endfacet
  facet normal -0.866025 0 0.5
    outer loop
      vertex 10.6 3 5
      vertex 9.8 0 3.61436
      vertex 10.6 0 5
    endloop
  endfacet
  facet normal 0.866025 -0 0.5
    outer loop
      vertex 7.4 0 5
      vertex 8.2 3 3.61436
      vertex 7.4 3 5
    endloop
  endfacet
  facet normal 0.866025 0 0.5
    outer loop
      vertex 8.2 3 3.61436
      vertex 7.4 0 5
      vertex 8.2 0 3.61436
    endloop
  endfacet
  facet normal -0 0 1
    outer loop
      vertex 8.2 3 3.61436
      vertex 9.8 0 3.61436
      vertex 9.8 3 3.61436
    endloop
  endfacet
  facet normal 0 0 1
    outer loop
      vertex 9.8 0 3.61436
      vertex 8.2 3 3.61436
      vertex 8.2 0 3.61436
    endloop
  endfacet
  facet normal -1 0 0
    outer loop
      vertex 15.5 100 0
      vertex 15.5 96.6 7.5
      vertex 15.5 100 12.5
    endloop
  endfacet
  facet normal -1 0 0
    outer loop
      vertex 15.5 100 0
      vertex 15.5 96.3856 6.7
      vertex 15.5 96.6 7.5
    endloop
  endfacet
  facet normal -1 0 0
    outer loop
      vertex 15.5 100 0
      vertex 15.5 95.8 6.11436
      vertex 15.5 96.3856 6.7
    endloop
  endfacet
  facet normal -1 0 0
    outer loop
      vertex 15.5 100 0
      vertex 15.5 95 5.9
      vertex 15.5 95.8 6.11436
    endloop
  endfacet
  facet normal -1 0 0
    outer loop
      vertex 15.5 100 0
      vertex 15.5 94.2 6.11436
      vertex 15.5 95 5.9
    endloop
  endfacet
  facet normal -1 0 0
    outer loop
      vertex 15.5 51.3856 4.2
      vertex 15.5 94.2 6.11436
      vertex 15.5 100 0
    endloop
  endfacet
  facet normal -1 -0 0
    outer loop
      vertex 15.5 94.2 6.11436
      vertex 15.5 51.3856 4.2
      vertex 15.5 93.7827 6.53163
    endloop
  endfacet
  facet normal -1 -0 0
    outer loop
      vertex 15.5 93.6144 6.7
      vertex 15.5 51.6 5
      vertex 15.5 93.4 7.5
    endloop
  endfacet
  facet normal -1 -0 0
    outer loop
      vertex 15.5 93.7827 6.53163
      vertex 15.5 51.3856 4.2
      vertex 15.5 93.6144 6.7
    endloop
  endfacet
  facet normal -1 0 0
    outer loop
      vertex 15.5 93.6144 6.7
      vertex 15.5 51.3856 4.2
      vertex 15.5 51.6 5
    endloop
  endfacet
  facet normal -1 0 0
    outer loop
      vertex 15.5 100 0
      vertex 15.5 50.8 3.61436
      vertex 15.5 51.3856 4.2
    endloop
  endfacet
  facet normal -1 0 0
    outer loop
      vertex 15.5 100 0
      vertex 15.5 50.57 3.55273
      vertex 15.5 50.8 3.61436
    endloop
  endfacet
  facet normal -1 0 0
    outer loop
      vertex 15.5 100 0
      vertex 15.5 50 3.4
      vertex 15.5 50.57 3.55273
    endloop
  endfacet
  facet normal -1 -0 0
    outer loop
      vertex 15.5 48.6144 4.2
      vertex 15.5 3 0
      vertex 15.5 48.4 5
    endloop
  endfacet
  facet normal -1 -0 0
    outer loop
      vertex 15.5 49.2 3.61436
      vertex 15.5 3 0
      vertex 15.5 48.6144 4.2
    endloop
  endfacet
  facet normal -1 -0 0
    outer loop
      vertex 15.5 50 3.4
      vertex 15.5 3 0
      vertex 15.5 49.2 3.61436
    endloop
  endfacet
  facet normal -1 0 0
    outer loop
      vertex 15.5 3 0
      vertex 15.5 50 3.4
      vertex 15.5 100 0
    endloop
  endfacet
  facet normal -1 0 0
    outer loop
      vertex 15.5 96.3856 8.3
      vertex 15.5 100 12.5
      vertex 15.5 96.6 7.5
    endloop
  endfacet
  facet normal -1 0 0
    outer loop
      vertex 15.5 95.8 8.88564
      vertex 15.5 100 12.5
      vertex 15.5 96.3856 8.3
    endloop
  endfacet
  facet normal -1 0 0
    outer loop
      vertex 15.5 95 9.1
      vertex 15.5 100 12.5
      vertex 15.5 95.8 8.88564
    endloop
  endfacet
  facet normal -1 0 0
    outer loop
      vertex 15.5 94.2 8.88564
      vertex 15.5 100 12.5
      vertex 15.5 95 9.1
    endloop
  endfacet
  facet normal -1 0 0
    outer loop
      vertex 15.5 50.8 6.38564
      vertex 15.5 93.7827 8.46837
      vertex 15.5 93.6144 8.3
    endloop
  endfacet
  facet normal -1 0 0
    outer loop
      vertex 15.5 51.3856 5.8
      vertex 15.5 93.4 7.5
      vertex 15.5 51.6 5
    endloop
  endfacet
  facet normal -1 -0 0
    outer loop
      vertex 15.5 93.4 7.5
      vertex 15.5 51.3856 5.8
      vertex 15.5 93.6144 8.3
    endloop
  endfacet
  facet normal -1 0 0
    outer loop
      vertex 15.5 50.8 6.38564
      vertex 15.5 93.6144 8.3
      vertex 15.5 51.3856 5.8
    endloop
  endfacet
  facet normal -1 -0 0
    outer loop
      vertex 15.5 93.7827 8.46837
      vertex 15.5 50.8 6.38564
      vertex 15.5 94.2 8.88564
    endloop
  endfacet
  facet normal -1 -0 0
    outer loop
      vertex 15.5 94.2 8.88564
      vertex 15.5 50.8 6.38564
      vertex 15.5 100 12.5
    endloop
  endfacet
  facet normal -1 0 0
    outer loop
      vertex 15.5 50.23 6.53837
      vertex 15.5 100 12.5
      vertex 15.5 50.8 6.38564
    endloop
  endfacet
  facet normal -1 0 0
    outer loop
      vertex 15.5 50 6.6
      vertex 15.5 100 12.5
      vertex 15.5 50.23 6.53837
    endloop
  endfacet
  facet normal -1 0 0
    outer loop
      vertex 15.5 3 12.5
      vertex 15.5 48.4 5
      vertex 15.5 3 0
    endloop
  endfacet
  facet normal -1 0 0
    outer loop
      vertex 15.5 48.4 5
      vertex 15.5 3 12.5
      vertex 15.5 48.6144 5.8
    endloop
  endfacet
  facet normal -1 0 0
    outer loop
      vertex 15.5 48.6144 5.8
      vertex 15.5 3 12.5
      vertex 15.5 49.2 6.38564
    endloop
  endfacet
  facet normal -1 0 0
    outer loop
      vertex 15.5 50 6.6
      vertex 15.5 3 12.5
      vertex 15.5 100 12.5
    endloop
  endfacet
  facet normal -1 0 0
    outer loop
      vertex 15.5 49.2 6.38564
      vertex 15.5 3 12.5
      vertex 15.5 50 6.6
    endloop
  endfacet
  facet normal 1 0 0
    outer loop
      vertex 20.5 100 12.5
      vertex 20.5 96.6 7.5
      vertex 20.5 100 0
    endloop
  endfacet
  facet normal 1 0 0
    outer loop
      vertex 20.5 100 12.5
      vertex 20.5 96.3856 8.3
      vertex 20.5 96.6 7.5
    endloop
  endfacet
  facet normal 1 0 0
    outer loop
      vertex 20.5 100 12.5
      vertex 20.5 95.8 8.88564
      vertex 20.5 96.3856 8.3
    endloop
  endfacet
  facet normal 1 0 0
    outer loop
      vertex 20.5 100 12.5
      vertex 20.5 95 9.1
      vertex 20.5 95.8 8.88564
    endloop
  endfacet
  facet normal 1 0 0
    outer loop
      vertex 20.5 100 12.5
      vertex 20.5 94.2 8.88564
      vertex 20.5 95 9.1
    endloop
  endfacet
  facet normal 1 0 0
    outer loop
      vertex 20.5 50.8 6.38564
      vertex 20.5 93.8559 8.54158
      vertex 20.5 94.2 8.88564
    endloop
  endfacet
  facet normal 1 0 0
    outer loop
      vertex 20.5 51.3856 5.8
      vertex 20.5 93.4 7.5
      vertex 20.5 93.6144 8.3
    endloop
  endfacet
  facet normal 1 0 0
    outer loop
      vertex 20.5 93.8559 8.54158
      vertex 20.5 50.8 6.38564
      vertex 20.5 93.6144 8.3
    endloop
  endfacet
  facet normal 1 0 0
    outer loop
      vertex 20.5 50.8 6.38564
      vertex 20.5 94.2 8.88564
      vertex 20.5 100 12.5
    endloop
  endfacet
  facet normal 1 0 0
    outer loop
      vertex 20.5 93.4 7.5
      vertex 20.5 51.3856 5.8
      vertex 20.5 51.6 5
    endloop
  endfacet
  facet normal 1 0 0
    outer loop
      vertex 20.5 93.6144 8.3
      vertex 20.5 50.8 6.38564
      vertex 20.5 51.3856 5.8
    endloop
  endfacet
  facet normal 1 0 0
    outer loop
      vertex 20.5 100 12.5
      vertex 20.5 50.33 6.51158
      vertex 20.5 50.8 6.38564
    endloop
  endfacet
  facet normal 1 0 0
    outer loop
      vertex 20.5 100 12.5
      vertex 20.5 50 6.6
      vertex 20.5 50.33 6.51158
    endloop
  endfacet
  facet normal 1 0 0
    outer loop
      vertex 20.5 48.6144 5.8
      vertex 20.5 3 12.5
      vertex 20.5 48.4 5
    endloop
  endfacet
  facet normal 1 0 0
    outer loop
      vertex 20.5 49.2 6.38564
      vertex 20.5 3 12.5
      vertex 20.5 48.6144 5.8
    endloop
  endfacet
  facet normal 1 0 0
    outer loop
      vertex 20.5 50 6.6
      vertex 20.5 3 12.5
      vertex 20.5 49.2 6.38564
    endloop
  endfacet
  facet normal 1 -0 0
    outer loop
      vertex 20.5 3 12.5
      vertex 20.5 50 6.6
      vertex 20.5 100 12.5
    endloop
  endfacet
  facet normal 1 -0 0
    outer loop
      vertex 20.5 96.3856 6.7
      vertex 20.5 100 0
      vertex 20.5 96.6 7.5
    endloop
  endfacet
  facet normal 1 -0 0
    outer loop
      vertex 20.5 95.8 6.11436
      vertex 20.5 100 0
      vertex 20.5 96.3856 6.7
    endloop
  endfacet
  facet normal 1 -0 0
    outer loop
      vertex 20.5 95 5.9
      vertex 20.5 100 0
      vertex 20.5 95.8 6.11436
    endloop
  endfacet
  facet normal 1 0 0
    outer loop
      vertex 20.5 94.2 6.11436
      vertex 20.5 100 0
      vertex 20.5 95 5.9
    endloop
  endfacet
  facet normal 1 0 0
    outer loop
      vertex 20.5 51.3856 4.2
      vertex 20.5 94.2 6.11436
      vertex 20.5 93.8559 6.45842
    endloop
  endfacet
  facet normal 1 0 0
    outer loop
      vertex 20.5 51.3856 4.2
      vertex 20.5 93.8559 6.45842
      vertex 20.5 93.6144 6.7
    endloop
  endfacet
  facet normal 1 0 0
    outer loop
      vertex 20.5 51.6 5
      vertex 20.5 93.6144 6.7
      vertex 20.5 93.4 7.5
    endloop
  endfacet
  facet normal 1 0 0
    outer loop
      vertex 20.5 51.3856 4.2
      vertex 20.5 93.6144 6.7
      vertex 20.5 51.6 5
    endloop
  endfacet
  facet normal 1 0 0
    outer loop
      vertex 20.5 94.2 6.11436
      vertex 20.5 51.3856 4.2
      vertex 20.5 100 0
    endloop
  endfacet
  facet normal 1 -0 0
    outer loop
      vertex 20.5 50.8 3.61436
      vertex 20.5 100 0
      vertex 20.5 51.3856 4.2
    endloop
  endfacet
  facet normal 1 -0 0
    outer loop
      vertex 20.5 50.47 3.52594
      vertex 20.5 100 0
      vertex 20.5 50.8 3.61436
    endloop
  endfacet
  facet normal 1 -0 0
    outer loop
      vertex 20.5 50 3.4
      vertex 20.5 100 0
      vertex 20.5 50.47 3.52594
    endloop
  endfacet
  facet normal 1 0 0
    outer loop
      vertex 20.5 3 0
      vertex 20.5 48.4 5
      vertex 20.5 3 12.5
    endloop
  endfacet
  facet normal 1 0 0
    outer loop
      vertex 20.5 48.4 5
      vertex 20.5 3 0
      vertex 20.5 48.6144 4.2
    endloop
  endfacet
  facet normal 1 0 0
    outer loop
      vertex 20.5 48.6144 4.2
      vertex 20.5 3 0
      vertex 20.5 49.2 3.61436
    endloop
  endfacet
  facet normal 1 0 0
    outer loop
      vertex 20.5 50 3.4
      vertex 20.5 3 0
      vertex 20.5 100 0
    endloop
  endfacet
  facet normal 1 0 0
    outer loop
      vertex 20.5 49.2 3.61436
      vertex 20.5 3 0
      vertex 20.5 50 3.4
    endloop
  endfacet
  facet normal 0 1 -0
    outer loop
      vertex 20.5 100 0
      vertex 15.5 100 12.5
      vertex 20.5 100 12.5
    endloop
  endfacet
  facet normal 0 1 0
    outer loop
      vertex 15.5 100 12.5
      vertex 20.5 100 0
      vertex 15.5 100 0
    endloop
  endfacet
  facet normal -1 0 0
    outer loop
      vertex 29.5 100 0
      vertex 29.5 96.6 7.5
      vertex 29.5 100 12.5
    endloop
  endfacet
  facet normal -1 0 0
    outer loop
      vertex 29.5 100 0
      vertex 29.5 96.3856 6.7
      vertex 29.5 96.6 7.5
    endloop
  endfacet
  facet normal -1 0 0
    outer loop
      vertex 29.5 100 0
      vertex 29.5 95.8 6.11436
      vertex 29.5 96.3856 6.7
    endloop
  endfacet
  facet normal -1 0 0
    outer loop
      vertex 29.5 100 0
      vertex 29.5 95 5.9
      vertex 29.5 95.8 6.11436
    endloop
  endfacet
  facet normal -1 0 0
    outer loop
      vertex 29.5 100 0
      vertex 29.5 94.2 6.11436
      vertex 29.5 95 5.9
    endloop
  endfacet
  facet normal -1 0 0
    outer loop
      vertex 29.5 51.3856 4.2
      vertex 29.5 94.2 6.11436
      vertex 29.5 100 0
    endloop
  endfacet
  facet normal -1 -0 0
    outer loop
      vertex 29.5 94.2 6.11436
      vertex 29.5 51.3856 4.2
      vertex 29.5 93.9877 6.32665
    endloop
  endfacet
  facet normal -1 -0 0
    outer loop
      vertex 29.5 93.6144 6.7
      vertex 29.5 51.6 5
      vertex 29.5 93.4 7.5
    endloop
  endfacet
  facet normal -1 -0 0
    outer loop
      vertex 29.5 93.9877 6.32665
      vertex 29.5 51.3856 4.2
      vertex 29.5 93.6144 6.7
    endloop
  endfacet
  facet normal -1 0 0
    outer loop
      vertex 29.5 93.6144 6.7
      vertex 29.5 51.3856 4.2
      vertex 29.5 51.6 5
    endloop
  endfacet
  facet normal -1 0 0
    outer loop
      vertex 29.5 100 0
      vertex 29.5 50.8 3.61436
      vertex 29.5 51.3856 4.2
    endloop
  endfacet
  facet normal -1 0 0
    outer loop
      vertex 29.5 100 0
      vertex 29.5 50.29 3.47771
      vertex 29.5 50.8 3.61436
    endloop
  endfacet
  facet normal -1 0 0
    outer loop
      vertex 29.5 100 0
      vertex 29.5 50 3.4
      vertex 29.5 50.29 3.47771
    endloop
  endfacet
  facet normal -1 -0 0
    outer loop
      vertex 29.5 48.6144 4.2
      vertex 29.5 3 0
      vertex 29.5 48.4 5
    endloop
  endfacet
  facet normal -1 -0 0
    outer loop
      vertex 29.5 49.2 3.61436
      vertex 29.5 3 0
      vertex 29.5 48.6144 4.2
    endloop
  endfacet
  facet normal -1 -0 0
    outer loop
      vertex 29.5 50 3.4
      vertex 29.5 3 0
      vertex 29.5 49.2 3.61436
    endloop
  endfacet
  facet normal -1 0 0
    outer loop
      vertex 29.5 3 0
      vertex 29.5 50 3.4
      vertex 29.5 100 0
    endloop
  endfacet
  facet normal -1 0 0
    outer loop
      vertex 29.5 96.3856 8.3
      vertex 29.5 100 12.5
      vertex 29.5 96.6 7.5
    endloop
  endfacet
  facet normal -1 0 0
    outer loop
      vertex 29.5 95.8 8.88564
      vertex 29.5 100 12.5
      vertex 29.5 96.3856 8.3
    endloop
  endfacet
  facet normal -1 0 0
    outer loop
      vertex 29.5 95 9.1
      vertex 29.5 100 12.5
      vertex 29.5 95.8 8.88564
    endloop
  endfacet
  facet normal -1 0 0
    outer loop
      vertex 29.5 94.2 8.88564
      vertex 29.5 100 12.5
      vertex 29.5 95 9.1
    endloop
  endfacet
  facet normal -1 0 0
    outer loop
      vertex 29.5 50.8 6.38564
      vertex 29.5 93.9877 8.67335
      vertex 29.5 93.6144 8.3
    endloop
  endfacet
  facet normal -1 0 0
    outer loop
      vertex 29.5 51.3856 5.8
      vertex 29.5 93.4 7.5
      vertex 29.5 51.6 5
    endloop
  endfacet
  facet normal -1 -0 0
    outer loop
      vertex 29.5 93.4 7.5
      vertex 29.5 51.3856 5.8
      vertex 29.5 93.6144 8.3
    endloop
  endfacet
  facet normal -1 0 0
    outer loop
      vertex 29.5 50.8 6.38564
      vertex 29.5 93.6144 8.3
      vertex 29.5 51.3856 5.8
    endloop
  endfacet
  facet normal -1 -0 0
    outer loop
      vertex 29.5 93.9877 8.67335
      vertex 29.5 50.8 6.38564
      vertex 29.5 94.2 8.88564
    endloop
  endfacet
  facet normal -1 -0 0
    outer loop
      vertex 29.5 94.2 8.88564
      vertex 29.5 50.8 6.38564
      vertex 29.5 100 12.5
    endloop
  endfacet
  facet normal -1 0 0
    outer loop
      vertex 29.5 50.51 6.46335
      vertex 29.5 100 12.5
      vertex 29.5 50.8 6.38564
    endloop
  endfacet
  facet normal -1 0 0
    outer loop
      vertex 29.5 50 6.6
      vertex 29.5 100 12.5
      vertex 29.5 50.51 6.46335
    endloop
  endfacet
  facet normal -1 0 0
    outer loop
      vertex 29.5 3 12.5
      vertex 29.5 48.4 5
      vertex 29.5 3 0
    endloop
  endfacet
  facet normal -1 0 0
    outer loop
      vertex 29.5 48.4 5
      vertex 29.5 3 12.5
      vertex 29.5 48.6144 5.8
    endloop
  endfacet
  facet normal -1 0 0
    outer loop
      vertex 29.5 48.6144 5.8
      vertex 29.5 3 12.5
      vertex 29.5 49.2 6.38564
    endloop
  endfacet
  facet normal -1 0 0
    outer loop
      vertex 29.5 50 6.6
      vertex 29.5 3 12.5
      vertex 29.5 100 12.5
    endloop
  endfacet
  facet normal -1 0 0
    outer loop
      vertex 29.5 49.2 6.38564
      vertex 29.5 3 12.5
      vertex 29.5 50 6.6
    endloop
  endfacet
  facet normal 1 0 0
    outer loop
      vertex 34.5 100 12.5
      vertex 34.5 96.6 7.5
      vertex 34.5 100 0
    endloop
  endfacet
  facet normal 1 0 0
    outer loop
      vertex 34.5 100 12.5
      vertex 34.5 96.3856 8.3
      vertex 34.5 96.6 7.5
    endloop
  endfacet
  facet normal 1 0 0
    outer loop
      vertex 34.5 100 12.5
      vertex 34.5 95.8 8.88564
      vertex 34.5 96.3856 8.3
    endloop
  endfacet
  facet normal 1 0 0
    outer loop
      vertex 34.5 100 12.5
      vertex 34.5 95 9.1
      vertex 34.5 95.8 8.88564
    endloop
  endfacet
  facet normal 1 0 0
    outer loop
      vertex 34.5 100 12.5
      vertex 34.5 94.2 8.88564
      vertex 34.5 95 9.1
    endloop
  endfacet
  facet normal 1 0 0
    outer loop
      vertex 34.5 50.8 6.38564
      vertex 34.5 94.0609 8.74655
      vertex 34.5 94.2 8.88564
    endloop
  endfacet
  facet normal 1 0 0
    outer loop
      vertex 34.5 51.3856 5.8
      vertex 34.5 93.4 7.5
      vertex 34.5 93.6144 8.3
    endloop
  endfacet
  facet normal 1 0 0
    outer loop
      vertex 34.5 94.0609 8.74655
      vertex 34.5 50.8 6.38564
      vertex 34.5 93.6144 8.3
    endloop
  endfacet
  facet normal 1 0 0
    outer loop
      vertex 34.5 50.8 6.38564
      vertex 34.5 94.2 8.88564
      vertex 34.5 100 12.5
    endloop
  endfacet
  facet normal 1 0 0
    outer loop
      vertex 34.5 93.4 7.5
      vertex 34.5 51.3856 5.8
      vertex 34.5 51.6 5
    endloop
  endfacet
  facet normal 1 0 0
    outer loop
      vertex 34.5 93.6144 8.3
      vertex 34.5 50.8 6.38564
      vertex 34.5 51.3856 5.8
    endloop
  endfacet
  facet normal 1 0 0
    outer loop
      vertex 34.5 100 12.5
      vertex 34.5 50.61 6.43655
      vertex 34.5 50.8 6.38564
    endloop
  endfacet
  facet normal 1 0 0
    outer loop
      vertex 34.5 100 12.5
      vertex 34.5 50 6.6
      vertex 34.5 50.61 6.43655
    endloop
  endfacet
  facet normal 1 0 0
    outer loop
      vertex 34.5 48.6144 5.8
      vertex 34.5 3 12.5
      vertex 34.5 48.4 5
    endloop
  endfacet
  facet normal 1 0 0
    outer loop
      vertex 34.5 49.2 6.38564
      vertex 34.5 3 12.5
      vertex 34.5 48.6144 5.8
    endloop
  endfacet
  facet normal 1 0 0
    outer loop
      vertex 34.5 50 6.6
      vertex 34.5 3 12.5
      vertex 34.5 49.2 6.38564
    endloop
  endfacet
  facet normal 1 -0 0
    outer loop
      vertex 34.5 3 12.5
      vertex 34.5 50 6.6
      vertex 34.5 100 12.5
    endloop
  endfacet
  facet normal 1 -0 0
    outer loop
      vertex 34.5 96.3856 6.7
      vertex 34.5 100 0
      vertex 34.5 96.6 7.5
    endloop
  endfacet
  facet normal 1 -0 0
    outer loop
      vertex 34.5 95.8 6.11436
      vertex 34.5 100 0
      vertex 34.5 96.3856 6.7
    endloop
  endfacet
  facet normal 1 -0 0
    outer loop
      vertex 34.5 95 5.9
      vertex 34.5 100 0
      vertex 34.5 95.8 6.11436
    endloop
  endfacet
  facet normal 1 0 0
    outer loop
      vertex 34.5 94.2 6.11436
      vertex 34.5 100 0
      vertex 34.5 95 5.9
    endloop
  endfacet
  facet normal 1 0 0
    outer loop
      vertex 34.5 51.3856 4.2
      vertex 34.5 94.2 6.11436
      vertex 34.5 94.0609 6.25345
    endloop
  endfacet
  facet normal 1 0 0
    outer loop
      vertex 34.5 51.3856 4.2
      vertex 34.5 94.0609 6.25345
      vertex 34.5 93.6144 6.7
    endloop
  endfacet
  facet normal 1 0 0
    outer loop
      vertex 34.5 51.6 5
      vertex 34.5 93.6144 6.7
      vertex 34.5 93.4 7.5
    endloop
  endfacet
  facet normal 1 0 0
    outer loop
      vertex 34.5 51.3856 4.2
      vertex 34.5 93.6144 6.7
      vertex 34.5 51.6 5
    endloop
  endfacet
  facet normal 1 0 0
    outer loop
      vertex 34.5 94.2 6.11436
      vertex 34.5 51.3856 4.2
      vertex 34.5 100 0
    endloop
  endfacet
  facet normal 1 -0 0
    outer loop
      vertex 34.5 50.8 3.61436
      vertex 34.5 100 0
      vertex 34.5 51.3856 4.2
    endloop
  endfacet
  facet normal 1 -0 0
    outer loop
      vertex 34.5 50.19 3.45091
      vertex 34.5 100 0
      vertex 34.5 50.8 3.61436
    endloop
  endfacet
  facet normal 1 -0 0
    outer loop
      vertex 34.5 50 3.4
      vertex 34.5 100 0
      vertex 34.5 50.19 3.45091
    endloop
  endfacet
  facet normal 1 0 0
    outer loop
      vertex 34.5 3 0
      vertex 34.5 48.4 5
      vertex 34.5 3 12.5
    endloop
  endfacet
  facet normal 1 0 0
    outer loop
      vertex 34.5 48.4 5
      vertex 34.5 3 0
      vertex 34.5 48.6144 4.2
    endloop
  endfacet
  facet normal 1 0 0
    outer loop
      vertex 34.5 48.6144 4.2
      vertex 34.5 3 0
      vertex 34.5 49.2 3.61436
    endloop
  endfacet
  facet normal 1 0 0
    outer loop
      vertex 34.5 50 3.4
      vertex 34.5 3 0
      vertex 34.5 100 0
    endloop
  endfacet
  facet normal 1 0 0
    outer loop
      vertex 34.5 49.2 3.61436
      vertex 34.5 3 0
      vertex 34.5 50 3.4
    endloop
  endfacet
  facet normal 0 1 -0
    outer loop
      vertex 34.5 100 0
      vertex 29.5 100 12.5
      vertex 34.5 100 12.5
    endloop
  endfacet
  facet normal 0 1 0
    outer loop
      vertex 29.5 100 12.5
      vertex 34.5 100 0
      vertex 29.5 100 0
    endloop
  endfacet
  facet normal 0 -0.965926 -0.258819
    outer loop
      vertex 15.5 51.6 5
      vertex 20.5 51.3856 5.8
      vertex 15.5 51.3856 5.8
    endloop
  endfacet
  facet normal 0 -0.965926 -0.258819
    outer loop
      vertex 20.5 51.3856 5.8
      vertex 15.5 51.6 5
      vertex 20.5 51.6 5
    endloop
  endfacet
  facet normal 0 -0.965926 -0.258819
    outer loop
      vertex 29.5 51.6 5
      vertex 34.5 51.3856 5.8
      vertex 29.5 51.3856 5.8
    endloop
  endfacet
  facet normal 0 -0.965926 -0.258819
    outer loop
      vertex 34.5 51.3856 5.8
      vertex 29.5 51.6 5
      vertex 34.5 51.6 5
    endloop
  endfacet
  facet normal 0 0.965926 -0.258819
    outer loop
      vertex 20.5 48.4 5
      vertex 15.5 48.6144 5.8
      vertex 20.5 48.6144 5.8
    endloop
  endfacet
  facet normal 0 0.965926 -0.258819
    outer loop
      vertex 15.5 48.6144 5.8
      vertex 20.5 48.4 5
      vertex 15.5 48.4 5
    endloop
  endfacet
  facet normal 0 0.965926 -0.258819
    outer loop
      vertex 34.5 48.4 5
      vertex 29.5 48.6144 5.8
      vertex 34.5 48.6144 5.8
    endloop
  endfacet
  facet normal 0 0.965926 -0.258819
    outer loop
      vertex 29.5 48.6144 5.8
      vertex 34.5 48.4 5
      vertex 29.5 48.4 5
    endloop
  endfacet
  facet normal 1.19633e-007 -0.258819 -0.965926
    outer loop
      vertex 15.5 50.8 6.38564
      vertex 20.5 50.33 6.51158
      vertex 15.5 50.23 6.53837
    endloop
  endfacet
  facet normal 0 -0.25882 -0.965926
    outer loop
      vertex 20.5 50.33 6.51158
      vertex 15.5 50.8 6.38564
      vertex 20.5 50.8 6.38564
    endloop
  endfacet
  facet normal 1.11665e-007 -0.258819 -0.965926
    outer loop
      vertex 29.5 50.8 6.38564
      vertex 34.5 50.61 6.43655
      vertex 29.5 50.51 6.46335
    endloop
  endfacet
  facet normal 0 -0.258821 -0.965925
    outer loop
      vertex 34.5 50.61 6.43655
      vertex 29.5 50.8 6.38564
      vertex 34.5 50.8 6.38564
    endloop
  endfacet
  facet normal 0 -0.707107 -0.707106
    outer loop
      vertex 15.5 51.3856 5.8
      vertex 20.5 50.8 6.38564
      vertex 15.5 50.8 6.38564
    endloop
  endfacet
  facet normal 0 -0.707107 -0.707106
    outer loop
      vertex 20.5 50.8 6.38564
      vertex 15.5 51.3856 5.8
      vertex 20.5 51.3856 5.8
    endloop
  endfacet
  facet normal 0 -0.707107 -0.707106
    outer loop
      vertex 29.5 51.3856 5.8
      vertex 34.5 50.8 6.38564
      vertex 29.5 50.8 6.38564
    endloop
  endfacet
  facet normal 0 -0.707107 -0.707106
    outer loop
      vertex 34.5 50.8 6.38564
      vertex 29.5 51.3856 5.8
      vertex 34.5 51.3856 5.8
    endloop
  endfacet
  facet normal 0 -0.965926 0.258819
    outer loop
      vertex 15.5 51.3856 4.2
      vertex 20.5 51.6 5
      vertex 15.5 51.6 5
    endloop
  endfacet
  facet normal 0 -0.965926 0.258819
    outer loop
      vertex 20.5 51.6 5
      vertex 15.5 51.3856 4.2
      vertex 20.5 51.3856 4.2
    endloop
  endfacet
  facet normal 0 -0.965926 0.258819
    outer loop
      vertex 29.5 51.3856 4.2
      vertex 34.5 51.6 5
      vertex 29.5 51.6 5
    endloop
  endfacet
  facet normal 0 -0.965926 0.258819
    outer loop
      vertex 34.5 51.6 5
      vertex 29.5 51.3856 4.2
      vertex 34.5 51.3856 4.2
    endloop
  endfacet
  facet normal 0 0.965926 0.258819
    outer loop
      vertex 20.5 48.6144 4.2
      vertex 15.5 48.4 5
      vertex 20.5 48.4 5
    endloop
  endfacet
  facet normal 0 0.965926 0.258819
    outer loop
      vertex 15.5 48.4 5
      vertex 20.5 48.6144 4.2
      vertex 15.5 48.6144 4.2
    endloop
  endfacet
  facet normal 0 0.965926 0.258819
    outer loop
      vertex 34.5 48.6144 4.2
      vertex 29.5 48.4 5
      vertex 34.5 48.4 5
    endloop
  endfacet
  facet normal 0 0.965926 0.258819
    outer loop
      vertex 29.5 48.4 5
      vertex 34.5 48.6144 4.2
      vertex 29.5 48.6144 4.2
    endloop
  endfacet
  facet normal 0 -0.25882 -0.965926
    outer loop
      vertex 15.5 50.23 6.53837
      vertex 20.5 50 6.6
      vertex 15.5 50 6.6
    endloop
  endfacet
  facet normal 9.2547e-008 -0.258818 -0.965926
    outer loop
      vertex 20.5 50 6.6
      vertex 15.5 50.23 6.53837
      vertex 20.5 50.33 6.51158
    endloop
  endfacet
  facet normal 0 -0.25882 -0.965926
    outer loop
      vertex 29.5 50.51 6.46335
      vertex 34.5 50 6.6
      vertex 29.5 50 6.6
    endloop
  endfacet
  facet normal 1.08768e-007 -0.258819 -0.965926
    outer loop
      vertex 34.5 50 6.6
      vertex 29.5 50.51 6.46335
      vertex 34.5 50.61 6.43655
    endloop
  endfacet
  facet normal 0 0.707107 -0.707106
    outer loop
      vertex 20.5 48.6144 5.8
      vertex 15.5 49.2 6.38564
      vertex 20.5 49.2 6.38564
    endloop
  endfacet
  facet normal 0 0.707107 -0.707106
    outer loop
      vertex 15.5 49.2 6.38564
      vertex 20.5 48.6144 5.8
      vertex 15.5 48.6144 5.8
    endloop
  endfacet
  facet normal 0 0.707107 -0.707106
    outer loop
      vertex 34.5 48.6144 5.8
      vertex 29.5 49.2 6.38564
      vertex 34.5 49.2 6.38564
    endloop
  endfacet
  facet normal 0 0.707107 -0.707106
    outer loop
      vertex 29.5 49.2 6.38564
      vertex 34.5 48.6144 5.8
      vertex 29.5 48.6144 5.8
    endloop
  endfacet
  facet normal 0 0.258819 -0.965926
    outer loop
      vertex 15.5 49.2 6.38564
      vertex 20.5 50 6.6
      vertex 20.5 49.2 6.38564
    endloop
  endfacet
  facet normal 0 0.258819 -0.965926
    outer loop
      vertex 20.5 50 6.6
      vertex 15.5 49.2 6.38564
      vertex 15.5 50 6.6
    endloop
  endfacet
  facet normal 0 0.258819 -0.965926
    outer loop
      vertex 29.5 49.2 6.38564
      vertex 34.5 50 6.6
      vertex 34.5 49.2 6.38564
    endloop
  endfacet
  facet normal 0 0.258819 -0.965926
    outer loop
      vertex 34.5 50 6.6
      vertex 29.5 49.2 6.38564
      vertex 29.5 50 6.6
    endloop
  endfacet
  facet normal 0 -0.707107 0.707106
    outer loop
      vertex 15.5 50.8 3.61436
      vertex 20.5 51.3856 4.2
      vertex 15.5 51.3856 4.2
    endloop
  endfacet
  facet normal 0 -0.707107 0.707106
    outer loop
      vertex 20.5 51.3856 4.2
      vertex 15.5 50.8 3.61436
      vertex 20.5 50.8 3.61436
    endloop
  endfacet
  facet normal 0 -0.707107 0.707106
    outer loop
      vertex 29.5 50.8 3.61436
      vertex 34.5 51.3856 4.2
      vertex 29.5 51.3856 4.2
    endloop
  endfacet
  facet normal 0 -0.707107 0.707106
    outer loop
      vertex 34.5 51.3856 4.2
      vertex 29.5 50.8 3.61436
      vertex 34.5 50.8 3.61436
    endloop
  endfacet
  facet normal 0 0.707107 0.707106
    outer loop
      vertex 20.5 49.2 3.61436
      vertex 15.5 48.6144 4.2
      vertex 20.5 48.6144 4.2
    endloop
  endfacet
  facet normal 0 0.707107 0.707106
    outer loop
      vertex 15.5 48.6144 4.2
      vertex 20.5 49.2 3.61436
      vertex 15.5 49.2 3.61436
    endloop
  endfacet
  facet normal 0 0.707107 0.707106
    outer loop
      vertex 34.5 49.2 3.61436
      vertex 29.5 48.6144 4.2
      vertex 34.5 48.6144 4.2
    endloop
  endfacet
  facet normal 0 0.707107 0.707106
    outer loop
      vertex 29.5 48.6144 4.2
      vertex 34.5 49.2 3.61436
      vertex 29.5 49.2 3.61436
    endloop
  endfacet
  facet normal 0 -0.25882 0.965926
    outer loop
      vertex 15.5 50.57 3.55273
      vertex 20.5 50.8 3.61436
      vertex 15.5 50.8 3.61436
    endloop
  endfacet
  facet normal 4.50787e-008 -0.258821 0.965925
    outer loop
      vertex 20.5 50.8 3.61436
      vertex 15.5 50.57 3.55273
      vertex 20.5 50.47 3.52594
    endloop
  endfacet
  facet normal 0 -0.25882 0.965926
    outer loop
      vertex 29.5 50.29 3.47771
      vertex 34.5 50.8 3.61436
      vertex 29.5 50.8 3.61436
    endloop
  endfacet
  facet normal -1.16319e-007 -0.258819 0.965926
    outer loop
      vertex 34.5 50.8 3.61436
      vertex 29.5 50.29 3.47771
      vertex 34.5 50.19 3.45091
    endloop
  endfacet
  facet normal 7.783e-008 -0.258819 0.965926
    outer loop
      vertex 15.5 50 3.4
      vertex 20.5 50.47 3.52594
      vertex 15.5 50.57 3.55273
    endloop
  endfacet
  facet normal 0 -0.258818 0.965926
    outer loop
      vertex 20.5 50.47 3.52594
      vertex 15.5 50 3.4
      vertex 20.5 50 3.4
    endloop
  endfacet
  facet normal -9.57828e-008 -0.258818 0.965926
    outer loop
      vertex 29.5 50 3.4
      vertex 34.5 50.19 3.45091
      vertex 29.5 50.29 3.47771
    endloop
  endfacet
  facet normal 0 -0.25882 0.965926
    outer loop
      vertex 34.5 50.19 3.45091
      vertex 29.5 50 3.4
      vertex 34.5 50 3.4
    endloop
  endfacet
  facet normal -0 0.258819 0.965926
    outer loop
      vertex 15.5 50 3.4
      vertex 20.5 49.2 3.61436
      vertex 20.5 50 3.4
    endloop
  endfacet
  facet normal 0 0.258819 0.965926
    outer loop
      vertex 20.5 49.2 3.61436
      vertex 15.5 50 3.4
      vertex 15.5 49.2 3.61436
    endloop
  endfacet
  facet normal -0 0.258819 0.965926
    outer loop
      vertex 29.5 50 3.4
      vertex 34.5 49.2 3.61436
      vertex 34.5 50 3.4
    endloop
  endfacet
  facet normal 0 0.258819 0.965926
    outer loop
      vertex 34.5 49.2 3.61436
      vertex 29.5 50 3.4
      vertex 29.5 49.2 3.61436
    endloop
  endfacet
  facet normal 0 -0.258818 -0.965926
    outer loop
      vertex 15.5 95 9.1
      vertex 20.5 95.8 8.88564
      vertex 20.5 95 9.1
    endloop
  endfacet
  facet normal -0 -0.258818 -0.965926
    outer loop
      vertex 20.5 95.8 8.88564
      vertex 15.5 95 9.1
      vertex 15.5 95.8 8.88564
    endloop
  endfacet
  facet normal 0 -0.258818 -0.965926
    outer loop
      vertex 29.5 95 9.1
      vertex 34.5 95.8 8.88564
      vertex 34.5 95 9.1
    endloop
  endfacet
  facet normal -0 -0.258818 -0.965926
    outer loop
      vertex 34.5 95.8 8.88564
      vertex 29.5 95 9.1
      vertex 29.5 95.8 8.88564
    endloop
  endfacet
  facet normal 0 -0.965927 -0.258815
    outer loop
      vertex 15.5 96.6 7.5
      vertex 20.5 96.3856 8.3
      vertex 15.5 96.3856 8.3
    endloop
  endfacet
  facet normal 0 -0.965927 -0.258815
    outer loop
      vertex 20.5 96.3856 8.3
      vertex 15.5 96.6 7.5
      vertex 20.5 96.6 7.5
    endloop
  endfacet
  facet normal 0 -0.965927 -0.258815
    outer loop
      vertex 29.5 96.6 7.5
      vertex 34.5 96.3856 8.3
      vertex 29.5 96.3856 8.3
    endloop
  endfacet
  facet normal 0 -0.965927 -0.258815
    outer loop
      vertex 34.5 96.3856 8.3
      vertex 29.5 96.6 7.5
      vertex 34.5 96.6 7.5
    endloop
  endfacet
  facet normal 0 0.965927 -0.258815
    outer loop
      vertex 20.5 93.4 7.5
      vertex 15.5 93.6144 8.3
      vertex 20.5 93.6144 8.3
    endloop
  endfacet
  facet normal 0 0.965927 -0.258815
    outer loop
      vertex 15.5 93.6144 8.3
      vertex 20.5 93.4 7.5
      vertex 15.5 93.4 7.5
    endloop
  endfacet
  facet normal 0 0.965927 -0.258815
    outer loop
      vertex 34.5 93.4 7.5
      vertex 29.5 93.6144 8.3
      vertex 34.5 93.6144 8.3
    endloop
  endfacet
  facet normal 0 0.965927 -0.258815
    outer loop
      vertex 29.5 93.6144 8.3
      vertex 34.5 93.4 7.5
      vertex 29.5 93.4 7.5
    endloop
  endfacet
  facet normal 0 -0.965927 0.258815
    outer loop
      vertex 15.5 96.3856 6.7
      vertex 20.5 96.6 7.5
      vertex 15.5 96.6 7.5
    endloop
  endfacet
  facet normal 0 -0.965927 0.258815
    outer loop
      vertex 20.5 96.6 7.5
      vertex 15.5 96.3856 6.7
      vertex 20.5 96.3856 6.7
    endloop
  endfacet
  facet normal 0 -0.965927 0.258815
    outer loop
      vertex 29.5 96.3856 6.7
      vertex 34.5 96.6 7.5
      vertex 29.5 96.6 7.5
    endloop
  endfacet
  facet normal 0 -0.965927 0.258815
    outer loop
      vertex 34.5 96.6 7.5
      vertex 29.5 96.3856 6.7
      vertex 34.5 96.3856 6.7
    endloop
  endfacet
  facet normal 0 -0.258818 0.965926
    outer loop
      vertex 15.5 95.8 6.11436
      vertex 20.5 95 5.9
      vertex 20.5 95.8 6.11436
    endloop
  endfacet
  facet normal 0 -0.258818 0.965926
    outer loop
      vertex 20.5 95 5.9
      vertex 15.5 95.8 6.11436
      vertex 15.5 95 5.9
    endloop
  endfacet
  facet normal 0 -0.258818 0.965926
    outer loop
      vertex 29.5 95.8 6.11436
      vertex 34.5 95 5.9
      vertex 34.5 95.8 6.11436
    endloop
  endfacet
  facet normal 0 -0.258818 0.965926
    outer loop
      vertex 34.5 95 5.9
      vertex 29.5 95.8 6.11436
      vertex 29.5 95 5.9
    endloop
  endfacet
  facet normal 0 -0.707107 -0.707106
    outer loop
      vertex 15.5 96.3856 8.3
      vertex 20.5 95.8 8.88564
      vertex 15.5 95.8 8.88564
    endloop
  endfacet
  facet normal 0 -0.707107 -0.707106
    outer loop
      vertex 20.5 95.8 8.88564
      vertex 15.5 96.3856 8.3
      vertex 20.5 96.3856 8.3
    endloop
  endfacet
  facet normal 0 -0.707107 -0.707106
    outer loop
      vertex 29.5 96.3856 8.3
      vertex 34.5 95.8 8.88564
      vertex 29.5 95.8 8.88564
    endloop
  endfacet
  facet normal 0 -0.707107 -0.707106
    outer loop
      vertex 34.5 95.8 8.88564
      vertex 29.5 96.3856 8.3
      vertex 34.5 96.3856 8.3
    endloop
  endfacet
  facet normal 0 0.707109 -0.707105
    outer loop
      vertex 20.5 93.8559 8.54158
      vertex 15.5 94.2 8.88564
      vertex 20.5 94.2 8.88564
    endloop
  endfacet
  facet normal 6.38862e-008 0.707109 -0.707104
    outer loop
      vertex 15.5 94.2 8.88564
      vertex 20.5 93.8559 8.54158
      vertex 15.5 93.7827 8.46837
    endloop
  endfacet
  facet normal 0 0.707124 -0.70709
    outer loop
      vertex 34.5 94.0609 8.74655
      vertex 29.5 94.2 8.88564
      vertex 34.5 94.2 8.88564
    endloop
  endfacet
  facet normal -2.37187e-007 0.707119 -0.707094
    outer loop
      vertex 29.5 94.2 8.88564
      vertex 34.5 94.0609 8.74655
      vertex 29.5 93.9877 8.67335
    endloop
  endfacet
  facet normal 0 0.258818 -0.965926
    outer loop
      vertex 15.5 94.2 8.88564
      vertex 20.5 95 9.1
      vertex 20.5 94.2 8.88564
    endloop
  endfacet
  facet normal 0 0.258818 -0.965926
    outer loop
      vertex 20.5 95 9.1
      vertex 15.5 94.2 8.88564
      vertex 15.5 95 9.1
    endloop
  endfacet
  facet normal 0 0.258818 -0.965926
    outer loop
      vertex 29.5 94.2 8.88564
      vertex 34.5 95 9.1
      vertex 34.5 94.2 8.88564
    endloop
  endfacet
  facet normal 0 0.258818 -0.965926
    outer loop
      vertex 34.5 95 9.1
      vertex 29.5 94.2 8.88564
      vertex 29.5 95 9.1
    endloop
  endfacet
  facet normal 0 0.707103 -0.707111
    outer loop
      vertex 15.5 93.7827 8.46837
      vertex 20.5 93.6144 8.3
      vertex 15.5 93.6144 8.3
    endloop
  endfacet
  facet normal 1.75739e-007 0.707105 -0.707108
    outer loop
      vertex 20.5 93.6144 8.3
      vertex 15.5 93.7827 8.46837
      vertex 20.5 93.8559 8.54158
    endloop
  endfacet
  facet normal 0 0.7071 -0.707113
    outer loop
      vertex 29.5 93.9877 8.67335
      vertex 34.5 93.6144 8.3
      vertex 29.5 93.6144 8.3
    endloop
  endfacet
  facet normal 2.67527e-007 0.707102 -0.707111
    outer loop
      vertex 34.5 93.6144 8.3
      vertex 29.5 93.9877 8.67335
      vertex 34.5 94.0609 8.74655
    endloop
  endfacet
  facet normal 0 0.965927 0.258815
    outer loop
      vertex 20.5 93.6144 6.7
      vertex 15.5 93.4 7.5
      vertex 20.5 93.4 7.5
    endloop
  endfacet
  facet normal 0 0.965927 0.258815
    outer loop
      vertex 15.5 93.4 7.5
      vertex 20.5 93.6144 6.7
      vertex 15.5 93.6144 6.7
    endloop
  endfacet
  facet normal 0 0.965927 0.258815
    outer loop
      vertex 34.5 93.6144 6.7
      vertex 29.5 93.4 7.5
      vertex 34.5 93.4 7.5
    endloop
  endfacet
  facet normal 0 0.965927 0.258815
    outer loop
      vertex 29.5 93.4 7.5
      vertex 34.5 93.6144 6.7
      vertex 29.5 93.6144 6.7
    endloop
  endfacet
  facet normal 1.55305e-007 0.707106 0.707107
    outer loop
      vertex 15.5 93.7827 6.53163
      vertex 20.5 93.6144 6.7
      vertex 20.5 93.8559 6.45842
    endloop
  endfacet
  facet normal 0 0.707104 0.70711
    outer loop
      vertex 20.5 93.6144 6.7
      vertex 15.5 93.7827 6.53163
      vertex 15.5 93.6144 6.7
    endloop
  endfacet
  facet normal 2.56472e-007 0.707103 0.707111
    outer loop
      vertex 29.5 93.9877 6.32665
      vertex 34.5 93.6144 6.7
      vertex 34.5 94.0609 6.25345
    endloop
  endfacet
  facet normal 0 0.707101 0.707113
    outer loop
      vertex 34.5 93.6144 6.7
      vertex 29.5 93.9877 6.32665
      vertex 29.5 93.6144 6.7
    endloop
  endfacet
  facet normal -0 0.258818 0.965926
    outer loop
      vertex 15.5 95 5.9
      vertex 20.5 94.2 6.11436
      vertex 20.5 95 5.9
    endloop
  endfacet
  facet normal 0 0.258818 0.965926
    outer loop
      vertex 20.5 94.2 6.11436
      vertex 15.5 95 5.9
      vertex 15.5 94.2 6.11436
    endloop
  endfacet
  facet normal -0 0.258818 0.965926
    outer loop
      vertex 29.5 95 5.9
      vertex 34.5 94.2 6.11436
      vertex 34.5 95 5.9
    endloop
  endfacet
  facet normal 0 0.258818 0.965926
    outer loop
      vertex 34.5 94.2 6.11436
      vertex 29.5 95 5.9
      vertex 29.5 94.2 6.11436
    endloop
  endfacet
  facet normal 0 -0.707107 0.707106
    outer loop
      vertex 15.5 95.8 6.11436
      vertex 20.5 96.3856 6.7
      vertex 15.5 96.3856 6.7
    endloop
  endfacet
  facet normal 0 -0.707107 0.707106
    outer loop
      vertex 20.5 96.3856 6.7
      vertex 15.5 95.8 6.11436
      vertex 20.5 95.8 6.11436
    endloop
  endfacet
  facet normal 0 -0.707107 0.707106
    outer loop
      vertex 29.5 95.8 6.11436
      vertex 34.5 96.3856 6.7
      vertex 29.5 96.3856 6.7
    endloop
  endfacet
  facet normal 0 -0.707107 0.707106
    outer loop
      vertex 34.5 96.3856 6.7
      vertex 29.5 95.8 6.11436
      vertex 34.5 95.8 6.11436
    endloop
  endfacet
  facet normal -0 0.707108 0.707106
    outer loop
      vertex 15.5 94.2 6.11436
      vertex 20.5 93.8559 6.45842
      vertex 20.5 94.2 6.11436
    endloop
  endfacet
  facet normal 8.75474e-008 0.707108 0.707105
    outer loop
      vertex 20.5 93.8559 6.45842
      vertex 15.5 94.2 6.11436
      vertex 15.5 93.7827 6.53163
    endloop
  endfacet
  facet normal -0 0.707121 0.707092
    outer loop
      vertex 29.5 94.2 6.11436
      vertex 34.5 94.0609 6.25345
      vertex 34.5 94.2 6.11436
    endloop
  endfacet
  facet normal -1.90681e-007 0.707118 0.707096
    outer loop
      vertex 34.5 94.0609 6.25345
      vertex 29.5 94.2 6.11436
      vertex 29.5 93.9877 6.32665
    endloop
  endfacet
endsolid OpenSCAD_Model
