solid OpenSCAD_Model
  facet normal -1 0 0
    outer loop
      vertex 0 0 -5
      vertex 0 15 0
      vertex 0 15 -5
    endloop
  endfacet
  facet normal -1 0 0
    outer loop
      vertex 0 0 -5
      vertex 0 0 0
      vertex 0 15 0
    endloop
  endfacet
  facet normal -1 0 0
    outer loop
      vertex 0 -5 -5
      vertex 0 0 0
      vertex 0 0 -5
    endloop
  endfacet
  facet normal -1 -0 0
    outer loop
      vertex 0 0 0
      vertex 0 -5 -5
      vertex 0 0 5
    endloop
  endfacet
  facet normal -1 0 0
    outer loop
      vertex 0 58 5
      vertex 0 61 -5
      vertex 0 58 -5
    endloop
  endfacet
  facet normal -1 0 0
    outer loop
      vertex 0 61 7.5
      vertex 0 63 10
      vertex 0 63 7.5
    endloop
  endfacet
  facet normal -1 0 0
    outer loop
      vertex 0 61 -5
      vertex 0 58 5
      vertex 0 61 7.5
    endloop
  endfacet
  facet normal -1 0 0
    outer loop
      vertex 0 58 5
      vertex 0 63 10
      vertex 0 61 7.5
    endloop
  endfacet
  facet normal -1 0 0
    outer loop
      vertex 0 0 5
      vertex 0 63 10
      vertex 0 58 5
    endloop
  endfacet
  facet normal -1 0 0
    outer loop
      vertex 0 0 5
      vertex 0 -5 10
      vertex 0 63 10
    endloop
  endfacet
  facet normal -1 0 0
    outer loop
      vertex 0 -5 10
      vertex 0 0 5
      vertex 0 -5 -5
    endloop
  endfacet
  facet normal -0 0 1
    outer loop
      vertex 0 63 10
      vertex 8 -5 10
      vertex 8 63 10
    endloop
  endfacet
  facet normal 0 0 1
    outer loop
      vertex 8 -5 10
      vertex 0 63 10
      vertex 0 -5 10
    endloop
  endfacet
  facet normal 1 0 0
    outer loop
      vertex 8 63 10
      vertex 8 61 7.5
      vertex 8 63 7.5
    endloop
  endfacet
  facet normal 1 0 0
    outer loop
      vertex 8 61 7.5
      vertex 8 58 5
      vertex 8 61 -5
    endloop
  endfacet
  facet normal 1 0 0
    outer loop
      vertex 8 63 10
      vertex 8 58 5
      vertex 8 61 7.5
    endloop
  endfacet
  facet normal 1 0 0
    outer loop
      vertex 8 63 10
      vertex 8 0 5
      vertex 8 58 5
    endloop
  endfacet
  facet normal 1 0 0
    outer loop
      vertex 8 -5 -5
      vertex 8 0 0
      vertex 8 0 5
    endloop
  endfacet
  facet normal 1 -0 0
    outer loop
      vertex 8 -5 10
      vertex 8 0 5
      vertex 8 63 10
    endloop
  endfacet
  facet normal 1 0 0
    outer loop
      vertex 8 -5 -5
      vertex 8 0 5
      vertex 8 -5 10
    endloop
  endfacet
  facet normal 1 0 0
    outer loop
      vertex 8 0 0
      vertex 8 -5 -5
      vertex 8 -9.79685e-016 -5
    endloop
  endfacet
  facet normal 1 0 0
    outer loop
      vertex 8 61 -5
      vertex 8 58 5
      vertex 8 58 -5
    endloop
  endfacet
  facet normal 1 -0 0
    outer loop
      vertex 8 0 0
      vertex 8 15 -5
      vertex 8 15 0
    endloop
  endfacet
  facet normal 1 0 0
    outer loop
      vertex 8 15 -5
      vertex 8 0 0
      vertex 8 -9.79685e-016 -5
    endloop
  endfacet
  facet normal 0 1 -0
    outer loop
      vertex 8 63 7.5
      vertex 0 63 10
      vertex 8 63 10
    endloop
  endfacet
  facet normal 0 1 0
    outer loop
      vertex 0 63 10
      vertex 8 63 7.5
      vertex 0 63 7.5
    endloop
  endfacet
  facet normal 0 0 -1
    outer loop
      vertex 0 58 -5
      vertex 8 61 -5
      vertex 8 58 -5
    endloop
  endfacet
  facet normal -0 0 -1
    outer loop
      vertex 8 61 -5
      vertex 0 58 -5
      vertex 0 61 -5
    endloop
  endfacet
  facet normal 0 -1 0
    outer loop
      vertex 0 58 5
      vertex 3.2 58 1.38564
      vertex 8 58 5
    endloop
  endfacet
  facet normal 0 -1 0
    outer loop
      vertex 0 58 5
      vertex 2.64 58 0.415692
      vertex 3.2 58 1.38564
    endloop
  endfacet
  facet normal 0 -1 0
    outer loop
      vertex 0 58 5
      vertex 2.4 58 1.75025e-015
      vertex 2.64 58 0.415692
    endloop
  endfacet
  facet normal 0 -1 -0
    outer loop
      vertex 3.2 58 -1.38564
      vertex 0 58 -5
      vertex 4.8 58 -1.38564
    endloop
  endfacet
  facet normal 0 -1 -0
    outer loop
      vertex 2.96 58 -0.969948
      vertex 0 58 -5
      vertex 3.2 58 -1.38564
    endloop
  endfacet
  facet normal 0 -1 -0
    outer loop
      vertex 2.4 58 1.75025e-015
      vertex 0 58 -5
      vertex 2.96 58 -0.969948
    endloop
  endfacet
  facet normal 0 -1 0
    outer loop
      vertex 0 58 -5
      vertex 2.4 58 1.75025e-015
      vertex 0 58 5
    endloop
  endfacet
  facet normal 0 -1 0
    outer loop
      vertex 4.8 58 1.38564
      vertex 8 58 5
      vertex 3.2 58 1.38564
    endloop
  endfacet
  facet normal 0 -1 0
    outer loop
      vertex 5.6 58 1.55431e-015
      vertex 8 58 5
      vertex 4.8 58 1.38564
    endloop
  endfacet
  facet normal 0 -1 0
    outer loop
      vertex 5.6 58 1.55431e-015
      vertex 8 58 -5
      vertex 8 58 5
    endloop
  endfacet
  facet normal 0 -1 0
    outer loop
      vertex 4.8 58 -1.38564
      vertex 8 58 -5
      vertex 5.6 58 1.55431e-015
    endloop
  endfacet
  facet normal 0 -1 0
    outer loop
      vertex 8 58 -5
      vertex 4.8 58 -1.38564
      vertex 0 58 -5
    endloop
  endfacet
  facet normal 0 0 -1
    outer loop
      vertex 0 61 7.5
      vertex 8 63 7.5
      vertex 8 61 7.5
    endloop
  endfacet
  facet normal -0 0 -1
    outer loop
      vertex 8 63 7.5
      vertex 0 61 7.5
      vertex 0 63 7.5
    endloop
  endfacet
  facet normal 0 1 0
    outer loop
      vertex 8 61 7.5
      vertex 4.8 61 1.38564
      vertex 0 61 7.5
    endloop
  endfacet
  facet normal 0 1 0
    outer loop
      vertex 8 61 7.5
      vertex 5.6 61 8.88178e-016
      vertex 4.8 61 1.38564
    endloop
  endfacet
  facet normal 0 1 0
    outer loop
      vertex 4.8 61 -1.38564
      vertex 8 61 -5
      vertex 3.2 61 -1.38564
    endloop
  endfacet
  facet normal 0 1 0
    outer loop
      vertex 5.6 61 8.88178e-016
      vertex 8 61 -5
      vertex 4.8 61 -1.38564
    endloop
  endfacet
  facet normal 0 1 -0
    outer loop
      vertex 8 61 -5
      vertex 5.6 61 8.88178e-016
      vertex 8 61 7.5
    endloop
  endfacet
  facet normal 0 1 -0
    outer loop
      vertex 3.2 61 1.38564
      vertex 0 61 7.5
      vertex 4.8 61 1.38564
    endloop
  endfacet
  facet normal 0 1 -0
    outer loop
      vertex 2.88 61 0.831384
      vertex 0 61 7.5
      vertex 3.2 61 1.38564
    endloop
  endfacet
  facet normal 0 1 -0
    outer loop
      vertex 2.4 61 1.08412e-015
      vertex 0 61 7.5
      vertex 2.88 61 0.831384
    endloop
  endfacet
  facet normal 0 1 0
    outer loop
      vertex 2.4 61 1.08412e-015
      vertex 0 61 -5
      vertex 0 61 7.5
    endloop
  endfacet
  facet normal 0 1 0
    outer loop
      vertex 2.72 61 -0.554256
      vertex 0 61 -5
      vertex 2.4 61 1.08412e-015
    endloop
  endfacet
  facet normal 0 1 0
    outer loop
      vertex 3.2 61 -1.38564
      vertex 0 61 -5
      vertex 2.72 61 -0.554256
    endloop
  endfacet
  facet normal 0 1 0
    outer loop
      vertex 0 61 -5
      vertex 3.2 61 -1.38564
      vertex 8 61 -5
    endloop
  endfacet
  facet normal -0.866025 -1.11022e-016 -0.5
    outer loop
      vertex 5.6 58 1.55431e-015
      vertex 4.8 61 1.38564
      vertex 5.6 61 8.88178e-016
    endloop
  endfacet
  facet normal -0.866025 -0 -0.5
    outer loop
      vertex 4.8 61 1.38564
      vertex 5.6 58 1.55431e-015
      vertex 4.8 58 1.38564
    endloop
  endfacet
  facet normal 0 0 -1
    outer loop
      vertex 3.2 58 1.38564
      vertex 4.8 61 1.38564
      vertex 4.8 58 1.38564
    endloop
  endfacet
  facet normal -0 0 -1
    outer loop
      vertex 4.8 61 1.38564
      vertex 3.2 58 1.38564
      vertex 3.2 61 1.38564
    endloop
  endfacet
  facet normal 0.866025 1.11022e-016 0.5
    outer loop
      vertex 2.4 58 1.75025e-015
      vertex 2.72 61 -0.554256
      vertex 2.4 61 1.08412e-015
    endloop
  endfacet
  facet normal 0.866025 8.41306e-009 0.5
    outer loop
      vertex 2.72 61 -0.554256
      vertex 2.4 58 1.75025e-015
      vertex 2.96 58 -0.969948
    endloop
  endfacet
  facet normal -0 0 1
    outer loop
      vertex 3.2 61 -1.38564
      vertex 4.8 58 -1.38564
      vertex 4.8 61 -1.38564
    endloop
  endfacet
  facet normal 0 0 1
    outer loop
      vertex 4.8 58 -1.38564
      vertex 3.2 61 -1.38564
      vertex 3.2 58 -1.38564
    endloop
  endfacet
  facet normal -0.866025 0 0.5
    outer loop
      vertex 4.8 58 -1.38564
      vertex 5.6 61 8.88178e-016
      vertex 4.8 61 -1.38564
    endloop
  endfacet
  facet normal -0.866025 1.11022e-016 0.5
    outer loop
      vertex 5.6 61 8.88178e-016
      vertex 4.8 58 -1.38564
      vertex 5.6 58 1.55431e-015
    endloop
  endfacet
  facet normal 0.866025 -4.96705e-009 0.5
    outer loop
      vertex 2.96 58 -0.969948
      vertex 3.2 61 -1.38564
      vertex 2.72 61 -0.554256
    endloop
  endfacet
  facet normal 0.866025 0 0.5
    outer loop
      vertex 3.2 61 -1.38564
      vertex 2.96 58 -0.969948
      vertex 3.2 58 -1.38564
    endloop
  endfacet
  facet normal 0.866025 0 -0.5
    outer loop
      vertex 3.2 58 1.38564
      vertex 2.88 61 0.831384
      vertex 3.2 61 1.38564
    endloop
  endfacet
  facet normal 0.866025 -1.12514e-008 -0.5
    outer loop
      vertex 2.88 61 0.831384
      vertex 3.2 58 1.38564
      vertex 2.64 58 0.415692
    endloop
  endfacet
  facet normal 0.866025 9.15549e-017 -0.5
    outer loop
      vertex 2.64 58 0.415692
      vertex 2.4 61 1.08412e-015
      vertex 2.88 61 0.831384
    endloop
  endfacet
  facet normal 0.866025 -1.11022e-016 -0.5
    outer loop
      vertex 2.4 61 1.08412e-015
      vertex 2.64 58 0.415692
      vertex 2.4 58 1.75025e-015
    endloop
  endfacet
  facet normal -1 0 0
    outer loop
      vertex 0 35 110
      vertex 0 25 120
      vertex 0 35 125
    endloop
  endfacet
  facet normal -1 0 0
    outer loop
      vertex 0 35 110
      vertex 0 24.6194 118.087
      vertex 0 25 120
    endloop
  endfacet
  facet normal -1 0 0
    outer loop
      vertex 0 35 110
      vertex 0 23.5355 116.464
      vertex 0 24.6194 118.087
    endloop
  endfacet
  facet normal -1 0 0
    outer loop
      vertex 0 35 110
      vertex 0 22.3189 115.652
      vertex 0 23.5355 116.464
    endloop
  endfacet
  facet normal -1 0 0
    outer loop
      vertex 0 35 110
      vertex 0 21.9134 115.381
      vertex 0 22.3189 115.652
    endloop
  endfacet
  facet normal -1 0 0
    outer loop
      vertex 0 35 110
      vertex 0 21.4351 115.285
      vertex 0 21.9134 115.381
    endloop
  endfacet
  facet normal -1 0 0
    outer loop
      vertex 0 35 110
      vertex 0 20 115
      vertex 0 21.4351 115.285
    endloop
  endfacet
  facet normal -1 0 0
    outer loop
      vertex 0 10 110
      vertex 0 20 115
      vertex 0 35 110
    endloop
  endfacet
  facet normal -1 -0 0
    outer loop
      vertex 0 20 115
      vertex 0 10 110
      vertex 0 18.5649 115.285
    endloop
  endfacet
  facet normal -1 0 0
    outer loop
      vertex 0 10 110
      vertex 0 17.6811 115.652
      vertex 0 18.0866 115.381
    endloop
  endfacet
  facet normal -1 -0 0
    outer loop
      vertex 0 18.5649 115.285
      vertex 0 10 110
      vertex 0 18.0866 115.381
    endloop
  endfacet
  facet normal -1 -0 0
    outer loop
      vertex 0 17.6811 115.652
      vertex 0 10 110
      vertex 0 16.4645 116.464
    endloop
  endfacet
  facet normal -1 0 0
    outer loop
      vertex 0 10 110
      vertex 0 15.3806 118.087
      vertex 0 16.4645 116.464
    endloop
  endfacet
  facet normal -1 0 0
    outer loop
      vertex 0 10 110
      vertex 0 15 120
      vertex 0 15.3806 118.087
    endloop
  endfacet
  facet normal -1 0 0
    outer loop
      vertex 0 5 125
      vertex 0 15 120
      vertex 0 10 110
    endloop
  endfacet
  facet normal -1 0 0
    outer loop
      vertex 0 15 120
      vertex 0 5 125
      vertex 0 15 125
    endloop
  endfacet
  facet normal -1 -0 0
    outer loop
      vertex 0 35 125
      vertex 0 25 120
      vertex 0 25 125
    endloop
  endfacet
  facet normal -0 0 1
    outer loop
      vertex 3.10862e-014 35 125
      vertex 8 25 125
      vertex 8 35 125
    endloop
  endfacet
  facet normal 0 0 1
    outer loop
      vertex 0 25 125
      vertex 3.10862e-014 35 125
      vertex 0 35 125
    endloop
  endfacet
  facet normal 0 0 1
    outer loop
      vertex 3.10862e-014 35 125
      vertex 0 25 125
      vertex 8 25 125
    endloop
  endfacet
  facet normal -0 0 1
    outer loop
      vertex 0 15 125
      vertex 8 5 125
      vertex 8 15 125
    endloop
  endfacet
  facet normal 0 0 1
    outer loop
      vertex 8 5 125
      vertex 0 15 125
      vertex 0 5 125
    endloop
  endfacet
  facet normal 1 0 0
    outer loop
      vertex 8 15 125
      vertex 8 5 125
      vertex 8 15 120
    endloop
  endfacet
  facet normal 1 0 0
    outer loop
      vertex 8 25 120
      vertex 8 35 125
      vertex 8 25 125
    endloop
  endfacet
  facet normal 1 0 0
    outer loop
      vertex 8 35 125
      vertex 8 25 120
      vertex 8 32 110
    endloop
  endfacet
  facet normal 1 -0 0
    outer loop
      vertex 8 24.6194 118.087
      vertex 8 32 110
      vertex 8 25 120
    endloop
  endfacet
  facet normal 1 -0 0
    outer loop
      vertex 8 23.5355 116.464
      vertex 8 32 110
      vertex 8 24.6194 118.087
    endloop
  endfacet
  facet normal 1 -0 0
    outer loop
      vertex 8 23.13 116.193
      vertex 8 32 110
      vertex 8 23.5355 116.464
    endloop
  endfacet
  facet normal 1 -0 0
    outer loop
      vertex 8 21.9134 115.381
      vertex 8 32 110
      vertex 8 23.13 116.193
    endloop
  endfacet
  facet normal 1 -0 0
    outer loop
      vertex 8 20.4784 115.095
      vertex 8 32 110
      vertex 8 21.9134 115.381
    endloop
  endfacet
  facet normal 1 -0 0
    outer loop
      vertex 8 20 115
      vertex 8 32 110
      vertex 8 20.4784 115.095
    endloop
  endfacet
  facet normal 1 0 0
    outer loop
      vertex 8 5 110
      vertex 8 20 115
      vertex 8 19.5216 115.095
    endloop
  endfacet
  facet normal 1 0 0
    outer loop
      vertex 8 5 110
      vertex 8 19.5216 115.095
      vertex 8 18.0866 115.381
    endloop
  endfacet
  facet normal 1 0 0
    outer loop
      vertex 8 5 110
      vertex 8 16.87 116.193
      vertex 8 16.4645 116.464
    endloop
  endfacet
  facet normal 1 0 0
    outer loop
      vertex 8 5 125
      vertex 8 15.3806 118.087
      vertex 8 15 120
    endloop
  endfacet
  facet normal 1 0 0
    outer loop
      vertex 8 5 110
      vertex 8 15.3806 118.087
      vertex 8 5 125
    endloop
  endfacet
  facet normal 1 0 0
    outer loop
      vertex 8 20 115
      vertex 8 5 110
      vertex 8 32 110
    endloop
  endfacet
  facet normal 1 0 0
    outer loop
      vertex 8 16.87 116.193
      vertex 8 5 110
      vertex 8 18.0866 115.381
    endloop
  endfacet
  facet normal 1 0 0
    outer loop
      vertex 8 15.3806 118.087
      vertex 8 5 110
      vertex 8 16.4645 116.464
    endloop
  endfacet
  facet normal 0 0 -1
    outer loop
      vertex 8 10 110
      vertex 2.66454e-014 32 110
      vertex 8 32 110
    endloop
  endfacet
  facet normal 0 -0 -1
    outer loop
      vertex 2.66454e-014 32 110
      vertex 8 10 110
      vertex 0 10 110
    endloop
  endfacet
  facet normal 0 0 -1
    outer loop
      vertex 0 35 110
      vertex 2.66454e-014 32 110
      vertex 0 10 110
    endloop
  endfacet
  facet normal 0 0 -1
    outer loop
      vertex 2.66454e-014 32 110
      vertex 0 35 110
      vertex 2.74987e-014 35 110
    endloop
  endfacet
  facet normal nan nan nan
    outer loop
      vertex 8 32 110
      vertex 8 5 110
      vertex 8 10 110
    endloop
  endfacet
  facet normal 0 1 -0
    outer loop
      vertex 2.74987e-014 35 110
      vertex 0 35 125
      vertex 3.10862e-014 35 125
    endloop
  endfacet
  facet normal 0 1 0
    outer loop
      vertex 0 35 125
      vertex 2.74987e-014 35 110
      vertex 0 35 110
    endloop
  endfacet
  facet normal 0 -0.195081 0.980787
    outer loop
      vertex 0 21.4351 115.285
      vertex 8 21.9134 115.381
      vertex 0 21.9134 115.381
    endloop
  endfacet
  facet normal 3.27288e-007 -0.195086 0.980786
    outer loop
      vertex 8 21.9134 115.381
      vertex 0 21.4351 115.285
      vertex 8 20.4784 115.095
    endloop
  endfacet
  facet normal 0 -0.55557 0.83147
    outer loop
      vertex 0 23.5355 116.464
      vertex 8 23.13 116.193
      vertex 8 23.5355 116.464
    endloop
  endfacet
  facet normal 0 -0.55557 0.83147
    outer loop
      vertex 8 23.13 116.193
      vertex 0 23.5355 116.464
      vertex 0 22.3189 115.652
    endloop
  endfacet
  facet normal -3.27288e-007 -0.195092 0.980785
    outer loop
      vertex 0 20 115
      vertex 8 20.4784 115.095
      vertex 0 21.4351 115.285
    endloop
  endfacet
  facet normal 0 -0.195097 0.980784
    outer loop
      vertex 8 20.4784 115.095
      vertex 0 20 115
      vertex 8 20 115
    endloop
  endfacet
  facet normal -0 0.195097 0.980784
    outer loop
      vertex 0 20 115
      vertex 8 19.5216 115.095
      vertex 8 20 115
    endloop
  endfacet
  facet normal -3.27288e-007 0.195092 0.980785
    outer loop
      vertex 8 19.5216 115.095
      vertex 0 20 115
      vertex 0 18.5649 115.285
    endloop
  endfacet
  facet normal 0 -0.980785 0.19509
    outer loop
      vertex 0 24.6194 118.087
      vertex 8 25 120
      vertex 0 25 120
    endloop
  endfacet
  facet normal 0 -0.980785 0.19509
    outer loop
      vertex 8 25 120
      vertex 0 24.6194 118.087
      vertex 8 24.6194 118.087
    endloop
  endfacet
  facet normal 0 0.980785 0.19509
    outer loop
      vertex 8 15.3806 118.087
      vertex 0 15 120
      vertex 8 15 120
    endloop
  endfacet
  facet normal 0 0.980785 0.19509
    outer loop
      vertex 0 15 120
      vertex 8 15.3806 118.087
      vertex 0 15.3806 118.087
    endloop
  endfacet
  facet normal 0 0.55557 0.83147
    outer loop
      vertex 0 17.6811 115.652
      vertex 8 18.0866 115.381
      vertex 0 18.0866 115.381
    endloop
  endfacet
  facet normal 0 0.55557 0.83147
    outer loop
      vertex 8 18.0866 115.381
      vertex 0 17.6811 115.652
      vertex 8 16.87 116.193
    endloop
  endfacet
  facet normal 0 0.831471 0.555569
    outer loop
      vertex 8 16.4645 116.464
      vertex 0 15.3806 118.087
      vertex 8 15.3806 118.087
    endloop
  endfacet
  facet normal 0 0.831471 0.555569
    outer loop
      vertex 0 15.3806 118.087
      vertex 8 16.4645 116.464
      vertex 0 16.4645 116.464
    endloop
  endfacet
  facet normal 3.27288e-007 0.195086 0.980786
    outer loop
      vertex 0 18.5649 115.285
      vertex 8 18.0866 115.381
      vertex 8 19.5216 115.095
    endloop
  endfacet
  facet normal 0 0.195081 0.980787
    outer loop
      vertex 8 18.0866 115.381
      vertex 0 18.5649 115.285
      vertex 0 18.0866 115.381
    endloop
  endfacet
  facet normal 0 -0.55557 0.83147
    outer loop
      vertex 0 22.3189 115.652
      vertex 8 21.9134 115.381
      vertex 8 23.13 116.193
    endloop
  endfacet
  facet normal 0 -0.55557 0.83147
    outer loop
      vertex 8 21.9134 115.381
      vertex 0 22.3189 115.652
      vertex 0 21.9134 115.381
    endloop
  endfacet
  facet normal 0 -0.831471 0.555569
    outer loop
      vertex 0 23.5355 116.464
      vertex 8 24.6194 118.087
      vertex 0 24.6194 118.087
    endloop
  endfacet
  facet normal 0 -0.831471 0.555569
    outer loop
      vertex 8 24.6194 118.087
      vertex 0 23.5355 116.464
      vertex 8 23.5355 116.464
    endloop
  endfacet
  facet normal 0 0.55557 0.83147
    outer loop
      vertex 0 16.4645 116.464
      vertex 8 16.87 116.193
      vertex 0 17.6811 115.652
    endloop
  endfacet
  facet normal 0 0.55557 0.83147
    outer loop
      vertex 8 16.87 116.193
      vertex 0 16.4645 116.464
      vertex 8 16.4645 116.464
    endloop
  endfacet
  facet normal 0 -1 0
    outer loop
      vertex 0 25 120
      vertex 8 25 125
      vertex 0 25 125
    endloop
  endfacet
  facet normal 0 -1 -0
    outer loop
      vertex 8 25 125
      vertex 0 25 120
      vertex 8 25 120
    endloop
  endfacet
  facet normal 0 1 -0
    outer loop
      vertex 8 15 120
      vertex 0 15 125
      vertex 8 15 125
    endloop
  endfacet
  facet normal 0 1 0
    outer loop
      vertex 0 15 125
      vertex 8 15 120
      vertex 0 15 120
    endloop
  endfacet
  facet normal 1 0 0
    outer loop
      vertex 8 -9.79685e-016 -5
      vertex 8 -3 -7.5
      vertex 8 -9.79685e-016 -20
    endloop
  endfacet
  facet normal 1 -0 0
    outer loop
      vertex 8 -5 -5
      vertex 8 -3 -7.5
      vertex 8 -9.79685e-016 -5
    endloop
  endfacet
  facet normal 1 0 0
    outer loop
      vertex 8 -3 -7.5
      vertex 8 -5 -5
      vertex 8 -5 -7.5
    endloop
  endfacet
  facet normal 1 0 0
    outer loop
      vertex 8 -9.79685e-016 -20
      vertex 8 -3 -7.5
      vertex 8 -3 -20
    endloop
  endfacet
  facet normal 0 0 -1
    outer loop
      vertex 0 0 -5
      vertex 8 15 -5
      vertex 8 -9.79685e-016 -5
    endloop
  endfacet
  facet normal -0 0 -1
    outer loop
      vertex 8 15 -5
      vertex 0 0 -5
      vertex 0 15 -5
    endloop
  endfacet
  facet normal 0 0 -1
    outer loop
      vertex 0 -5 -5
      vertex -6.12303e-016 -5 -5
      vertex 0 0 -5
    endloop
  endfacet
  facet normal nan nan nan
    outer loop
      vertex -6.12303e-016 -5 -5
      vertex 8 -5 -5
      vertex 0 -5 -5
    endloop
  endfacet
  facet normal -1 1.22461e-016 0
    outer loop
      vertex -3.67382e-016 -3 -7.5
      vertex 0 0 -20
      vertex -3.67382e-016 -3 -20
    endloop
  endfacet
  facet normal -1 1.22461e-016 0
    outer loop
      vertex 0 0 -20
      vertex -3.67382e-016 -3 -7.5
      vertex 0 0 -5
    endloop
  endfacet
  facet normal -1 1.22461e-016 0
    outer loop
      vertex -6.12303e-016 -5 -5
      vertex -3.67382e-016 -3 -7.5
      vertex -6.12303e-016 -5 -7.5
    endloop
  endfacet
  facet normal -1 1.22461e-016 0
    outer loop
      vertex -3.67382e-016 -3 -7.5
      vertex -6.12303e-016 -5 -5
      vertex 0 0 -5
    endloop
  endfacet
  facet normal 0 -1 0
    outer loop
      vertex -6.12303e-016 -5 -7.5
      vertex 8 -5 -5
      vertex -6.12303e-016 -5 -5
    endloop
  endfacet
  facet normal 0 -1 -0
    outer loop
      vertex 8 -5 -5
      vertex -6.12303e-016 -5 -7.5
      vertex 8 -5 -7.5
    endloop
  endfacet
  facet normal 0 0 -1
    outer loop
      vertex 8 -3 -20
      vertex 0 0 -20
      vertex 8 -9.79685e-016 -20
    endloop
  endfacet
  facet normal 0 -0 -1
    outer loop
      vertex 0 0 -20
      vertex 8 -3 -20
      vertex -3.67382e-016 -3 -20
    endloop
  endfacet
  facet normal 1.22461e-016 1 1.48236e-024
    outer loop
      vertex 8 -9.79685e-016 -5
      vertex 4.8 -5.87811e-016 -13.6144
      vertex 0 0 -5
    endloop
  endfacet
  facet normal 1.22461e-016 1 -2.78114e-024
    outer loop
      vertex 8 -9.79685e-016 -5
      vertex 5.36 -6.56389e-016 -14.5843
      vertex 4.8 -5.87811e-016 -13.6144
    endloop
  endfacet
  facet normal 1.22461e-016 1 -2.81027e-023
    outer loop
      vertex 8 -9.79685e-016 -5
      vertex 5.6 -6.8578e-016 -15
      vertex 5.36 -6.56389e-016 -14.5843
    endloop
  endfacet
  facet normal 1.22461e-016 1 7.85865e-024
    outer loop
      vertex 8 -9.79685e-016 -20
      vertex 5.04 -6.17202e-016 -15.9699
      vertex 5.6 -6.8578e-016 -15
    endloop
  endfacet
  facet normal 1.22461e-016 1 -1.50904e-024
    outer loop
      vertex 4.8 -5.87811e-016 -16.3856
      vertex 8 -9.79685e-016 -20
      vertex 3.2 -3.91874e-016 -16.3856
    endloop
  endfacet
  facet normal 1.22461e-016 1 5.17519e-023
    outer loop
      vertex 5.04 -6.17202e-016 -15.9699
      vertex 8 -9.79685e-016 -20
      vertex 4.8 -5.87811e-016 -16.3856
    endloop
  endfacet
  facet normal 1.22461e-016 1 -0
    outer loop
      vertex 8 -9.79685e-016 -20
      vertex 5.6 -6.8578e-016 -15
      vertex 8 -9.79685e-016 -5
    endloop
  endfacet
  facet normal 1.22461e-016 1 2.75617e-024
    outer loop
      vertex 3.2 -3.91874e-016 -13.6144
      vertex 0 0 -5
      vertex 4.8 -5.87811e-016 -13.6144
    endloop
  endfacet
  facet normal 1.22461e-016 1 -1.67711e-024
    outer loop
      vertex 2.4 -2.93906e-016 -15
      vertex 0 0 -5
      vertex 3.2 -3.91874e-016 -13.6144
    endloop
  endfacet
  facet normal 1.22461e-016 1 0
    outer loop
      vertex 2.4 -2.93906e-016 -15
      vertex 0 0 -20
      vertex 0 0 -5
    endloop
  endfacet
  facet normal 1.22461e-016 1 2.59287e-024
    outer loop
      vertex 3.2 -3.91874e-016 -16.3856
      vertex 0 0 -20
      vertex 2.4 -2.93906e-016 -15
    endloop
  endfacet
  facet normal 1.22461e-016 1 -4.54501e-024
    outer loop
      vertex 0 0 -20
      vertex 3.2 -3.91874e-016 -16.3856
      vertex 8 -9.79685e-016 -20
    endloop
  endfacet
  facet normal 0 0 -1
    outer loop
      vertex 8 -5 -7.5
      vertex -3.67382e-016 -3 -7.5
      vertex 8 -3 -7.5
    endloop
  endfacet
  facet normal 0 -0 -1
    outer loop
      vertex -3.67382e-016 -3 -7.5
      vertex 8 -5 -7.5
      vertex -6.12303e-016 -5 -7.5
    endloop
  endfacet
  facet normal 0 -1 0
    outer loop
      vertex -3.67382e-016 -3 -7.5
      vertex 3.2 -3 -13.6144
      vertex 8 -3 -7.5
    endloop
  endfacet
  facet normal 0 -1 0
    outer loop
      vertex -3.67382e-016 -3 -7.5
      vertex 2.4 -3 -15
      vertex 3.2 -3 -13.6144
    endloop
  endfacet
  facet normal 0 -1 -0
    outer loop
      vertex 3.2 -3 -16.3856
      vertex -3.67382e-016 -3 -20
      vertex 4.8 -3 -16.3856
    endloop
  endfacet
  facet normal 0 -1 -0
    outer loop
      vertex 2.4 -3 -15
      vertex -3.67382e-016 -3 -20
      vertex 3.2 -3 -16.3856
    endloop
  endfacet
  facet normal 0 -1 0
    outer loop
      vertex -3.67382e-016 -3 -20
      vertex 2.4 -3 -15
      vertex -3.67382e-016 -3 -7.5
    endloop
  endfacet
  facet normal 0 -1 0
    outer loop
      vertex 4.8 -3 -13.6144
      vertex 8 -3 -7.5
      vertex 3.2 -3 -13.6144
    endloop
  endfacet
  facet normal 0 -1 0
    outer loop
      vertex 5.12 -3 -14.1686
      vertex 8 -3 -7.5
      vertex 4.8 -3 -13.6144
    endloop
  endfacet
  facet normal 0 -1 0
    outer loop
      vertex 5.6 -3 -15
      vertex 8 -3 -7.5
      vertex 5.12 -3 -14.1686
    endloop
  endfacet
  facet normal 0 -1 0
    outer loop
      vertex 5.6 -3 -15
      vertex 8 -3 -20
      vertex 8 -3 -7.5
    endloop
  endfacet
  facet normal 0 -1 0
    outer loop
      vertex 5.28 -3 -15.5543
      vertex 8 -3 -20
      vertex 5.6 -3 -15
    endloop
  endfacet
  facet normal 0 -1 0
    outer loop
      vertex 4.8 -3 -16.3856
      vertex 8 -3 -20
      vertex 5.28 -3 -15.5543
    endloop
  endfacet
  facet normal 0 -1 0
    outer loop
      vertex 8 -3 -20
      vertex 4.8 -3 -16.3856
      vertex -3.67382e-016 -3 -20
    endloop
  endfacet
  facet normal 0.866025 0 -0.5
    outer loop
      vertex 3.2 -3 -13.6144
      vertex 2.4 -2.93906e-016 -15
      vertex 3.2 -3.91874e-016 -13.6144
    endloop
  endfacet
  facet normal 0.866025 0 -0.5
    outer loop
      vertex 2.4 -2.93906e-016 -15
      vertex 3.2 -3 -13.6144
      vertex 2.4 -3 -15
    endloop
  endfacet
  facet normal 0 0 -1
    outer loop
      vertex 3.2 -3 -13.6144
      vertex 4.8 -5.87811e-016 -13.6144
      vertex 4.8 -3 -13.6144
    endloop
  endfacet
  facet normal -0 0 -1
    outer loop
      vertex 4.8 -5.87811e-016 -13.6144
      vertex 3.2 -3 -13.6144
      vertex 3.2 -3.91874e-016 -13.6144
    endloop
  endfacet
  facet normal -0.866025 -7.86577e-008 0.5
    outer loop
      vertex 5.28 -3 -15.5543
      vertex 5.6 -6.8578e-016 -15
      vertex 5.04 -6.17202e-016 -15.9699
    endloop
  endfacet
  facet normal -0.866026 0 0.5
    outer loop
      vertex 5.6 -6.8578e-016 -15
      vertex 5.28 -3 -15.5543
      vertex 5.6 -3 -15
    endloop
  endfacet
  facet normal 0 0 1
    outer loop
      vertex 3.2 -3.91874e-016 -16.3856
      vertex 4.8 -3 -16.3856
      vertex 4.8 -5.87811e-016 -16.3856
    endloop
  endfacet
  facet normal 0 0 1
    outer loop
      vertex 4.8 -3 -16.3856
      vertex 3.2 -3.91874e-016 -16.3856
      vertex 3.2 -3 -16.3856
    endloop
  endfacet
  facet normal 0.866025 -0 0.5
    outer loop
      vertex 2.4 -3 -15
      vertex 3.2 -3.91874e-016 -16.3856
      vertex 2.4 -2.93906e-016 -15
    endloop
  endfacet
  facet normal 0.866025 0 0.5
    outer loop
      vertex 3.2 -3.91874e-016 -16.3856
      vertex 2.4 -3 -15
      vertex 3.2 -3 -16.3856
    endloop
  endfacet
  facet normal -0.866026 0 0.5
    outer loop
      vertex 4.8 -3 -16.3856
      vertex 5.04 -6.17202e-016 -15.9699
      vertex 4.8 -5.87811e-016 -16.3856
    endloop
  endfacet
  facet normal -0.866025 -6.88255e-008 0.5
    outer loop
      vertex 5.04 -6.17202e-016 -15.9699
      vertex 4.8 -3 -16.3856
      vertex 5.28 -3 -15.5543
    endloop
  endfacet
  facet normal -0.866025 7.86577e-008 -0.5
    outer loop
      vertex 5.12 -3 -14.1686
      vertex 4.8 -5.87811e-016 -13.6144
      vertex 5.36 -6.56389e-016 -14.5843
    endloop
  endfacet
  facet normal -0.866026 -0 -0.5
    outer loop
      vertex 4.8 -5.87811e-016 -13.6144
      vertex 5.12 -3 -14.1686
      vertex 4.8 -3 -13.6144
    endloop
  endfacet
  facet normal -0.866026 0 -0.5
    outer loop
      vertex 5.6 -3 -15
      vertex 5.36 -6.56389e-016 -14.5843
      vertex 5.6 -6.8578e-016 -15
    endloop
  endfacet
  facet normal -0.866025 6.88255e-008 -0.5
    outer loop
      vertex 5.36 -6.56389e-016 -14.5843
      vertex 5.6 -3 -15
      vertex 5.12 -3 -14.1686
    endloop
  endfacet
  facet normal 0 0 -1
    outer loop
      vertex 0 0 5
      vertex 8 58 5
      vertex 8 0 5
    endloop
  endfacet
  facet normal -0 0 -1
    outer loop
      vertex 8 58 5
      vertex 0 0 5
      vertex 0 58 5
    endloop
  endfacet
  facet normal 0 1 -0
    outer loop
      vertex 8 0 0
      vertex 0 0 5
      vertex 8 0 5
    endloop
  endfacet
  facet normal 0 1 0
    outer loop
      vertex 0 0 5
      vertex 8 0 0
      vertex 0 0 0
    endloop
  endfacet
  facet normal -0 0 1
    outer loop
      vertex 0 15 0
      vertex 8 0 0
      vertex 8 15 0
    endloop
  endfacet
  facet normal 0 0 1
    outer loop
      vertex 8 0 0
      vertex 0 15 0
      vertex 0 0 0
    endloop
  endfacet
  facet normal 0 1 -0
    outer loop
      vertex 8 15 -5
      vertex 0 15 0
      vertex 8 15 0
    endloop
  endfacet
  facet normal 0 1 0
    outer loop
      vertex 0 15 0
      vertex 8 15 -5
      vertex 0 15 -5
    endloop
  endfacet
  facet normal 0 -1 0
    outer loop
      vertex 0 -5 -5
      vertex 8 -5 10
      vertex 0 -5 10
    endloop
  endfacet
  facet normal 0 -1 -0
    outer loop
      vertex 8 -5 10
      vertex 0 -5 -5
      vertex 8 -5 -5
    endloop
  endfacet
  facet normal -1 2.22045e-016 -2.22045e-016
    outer loop
      vertex -7.77156e-015 -5 10
      vertex -2.66454e-014 10 110
      vertex -6.66134e-015 0 10
    endloop
  endfacet
  facet normal -1 2.22045e-016 -2.22045e-016
    outer loop
      vertex -2.66454e-014 10 110
      vertex -7.77156e-015 -5 10
      vertex -3.10862e-014 5 125
    endloop
  endfacet
  facet normal 0 -0.996241 0.0866296
    outer loop
      vertex 8 5 125
      vertex -3.10862e-014 5 125
      vertex -7.77156e-015 -5 10
    endloop
  endfacet
  facet normal 0 0.995037 -0.0995037
    outer loop
      vertex -6.66134e-015 0 10
      vertex 4.4 4.5 55
      vertex 8 0 10
    endloop
  endfacet
  facet normal 0 0.995037 -0.0995037
    outer loop
      vertex 1.01857e-014 5 60
      vertex -2.66454e-014 10 110
      vertex 4 5 60
    endloop
  endfacet
  facet normal 0 0.995037 -0.0995037
    outer loop
      vertex 9.19359e-015 4.5 55
      vertex -2.66454e-014 10 110
      vertex 1.01857e-014 5 60
    endloop
  endfacet
  facet normal 0 0.995037 -0.0995037
    outer loop
      vertex 9.19359e-015 4.5 55
      vertex -6.66134e-015 0 10
      vertex -2.66454e-014 10 110
    endloop
  endfacet
  facet normal 0 0.995037 -0.0995037
    outer loop
      vertex 4.4 4.5 55
      vertex -6.66134e-015 0 10
      vertex 9.19359e-015 4.5 55
    endloop
  endfacet
  facet normal 0 0.995037 -0.0995037
    outer loop
      vertex 4 5 60
      vertex 0 10 110
      vertex 8 10 110
    endloop
  endfacet
  facet normal 0 0.995037 -0.0995037
    outer loop
      vertex 4 5 60
      vertex 8 10 110
      vertex 8 5 60
    endloop
  endfacet
  facet normal 0 0.995037 -0.0995037
    outer loop
      vertex 0 10 110
      vertex 4 5 60
      vertex -2.66454e-014 10 110
    endloop
  endfacet
  facet normal 0 0.995037 -0.0995037
    outer loop
      vertex 8 0 10
      vertex 4.4 4.5 55
      vertex 8 4.5 55
    endloop
  endfacet
  facet normal 0 0 -1
    outer loop
      vertex 8 -5 10
      vertex -6.66134e-015 0 10
      vertex 8 0 10
    endloop
  endfacet
  facet normal 1 0 0
    outer loop
      vertex 8 10 110
      vertex 8 3 60
      vertex 8 5 60
    endloop
  endfacet
  facet normal 1 0 0
    outer loop
      vertex 8 -5 10
      vertex 8 3 55
      vertex 8 3 60
    endloop
  endfacet
  facet normal 1 0 0
    outer loop
      vertex 8 3 55
      vertex 8 -5 10
      vertex 8 0 10
    endloop
  endfacet
  facet normal 1 0 0
    outer loop
      vertex 8 -5 10
      vertex 8 3 60
      vertex 8 10 110
    endloop
  endfacet
  facet normal 1 0 0
    outer loop
      vertex 8 4.5 55
      vertex 8 3 55
      vertex 8 0 10
    endloop
  endfacet
  facet normal 0 -0.996241 0.0866296
    outer loop
      vertex 8 5 125
      vertex -7.77156e-015 -5 10
      vertex 8 -5 10
    endloop
  endfacet
  facet normal 0 0 -1
    outer loop
      vertex 8 -5 10
      vertex -7.77156e-015 -5 10
      vertex -6.66134e-015 0 10
    endloop
  endfacet
  facet normal 1 0 0
    outer loop
      vertex 8 5 125
      vertex 8 -5 10
      vertex 8 5 110
    endloop
  endfacet
  facet normal 1 0 0
    outer loop
      vertex 8 10 110
      vertex 8 5 110
      vertex 8 -5 10
    endloop
  endfacet
  facet normal 0 0.948683 0.316228
    outer loop
      vertex 0 10 110
      vertex -3.10862e-014 5 125
      vertex 0 5 125
    endloop
  endfacet
  facet normal 0 0.948683 0.316228
    outer loop
      vertex -3.10862e-014 5 125
      vertex 0 10 110
      vertex -2.66454e-014 10 110
    endloop
  endfacet
  facet normal nan nan nan
    outer loop
      vertex -3.10862e-014 5 125
      vertex 8 5 125
      vertex 0 5 125
    endloop
  endfacet
  facet normal 1 -0 0
    outer loop
      vertex 8 32 110
      vertex 8 48.7279 56.3604
      vertex 8 35 125
    endloop
  endfacet
  facet normal 1 0 0
    outer loop
      vertex 8 48.7279 56.3604
      vertex 8 32 110
      vertex 8 45.2919 58.8774
    endloop
  endfacet
  facet normal 1 -0 0
    outer loop
      vertex 8 46.3 55
      vertex 8 58 10
      vertex 8 49 55
    endloop
  endfacet
  facet normal 0 0.971615 0.236567
    outer loop
      vertex 8 35 125
      vertex 1.15463e-014 63 10
      vertex 3.10862e-014 35 125
    endloop
  endfacet
  facet normal -1 2.84449e-016 2.3917e-016
    outer loop
      vertex 1.90958e-014 47.5 60
      vertex 2.66454e-014 32 110
      vertex 2.74987e-014 35 110
    endloop
  endfacet
  facet normal -1 2.8445e-016 2.3917e-016
    outer loop
      vertex 1.15463e-014 63 10
      vertex 1.87939e-014 48.12 58
      vertex 1.87691e-014 50 55.6604
    endloop
  endfacet
  facet normal -1 2.84449e-016 2.39169e-016
    outer loop
      vertex 1.9807e-014 50 60
      vertex 1.15463e-014 63 10
      vertex 1.87691e-014 50 55.6604
    endloop
  endfacet
  facet normal -1 2.84449e-016 2.3917e-016
    outer loop
      vertex 2.74987e-014 35 110
      vertex 1.9807e-014 50 60
      vertex 1.90958e-014 47.5 60
    endloop
  endfacet
  facet normal -1 2.84449e-016 2.3917e-016
    outer loop
      vertex 1.9807e-014 50 60
      vertex 3.10862e-014 35 125
      vertex 1.15463e-014 63 10
    endloop
  endfacet
  facet normal -1 2.84449e-016 2.3917e-016
    outer loop
      vertex 3.10862e-014 35 125
      vertex 1.9807e-014 50 60
      vertex 2.74987e-014 35 110
    endloop
  endfacet
  facet normal 0 0.971615 0.236567
    outer loop
      vertex 8 63 10
      vertex 1.15463e-014 63 10
      vertex 8 35 125
    endloop
  endfacet
  facet normal 0 0 -1
    outer loop
      vertex 8 58 10
      vertex 1.15463e-014 63 10
      vertex 8 63 10
    endloop
  endfacet
  facet normal 1 -0 0
    outer loop
      vertex 8 50 55
      vertex 8 63 10
      vertex 8 50 55.7229
    endloop
  endfacet
  facet normal 1 0 0
    outer loop
      vertex 8 50 55.7229
      vertex 8 35 125
      vertex 8 48.7279 56.3604
    endloop
  endfacet
  facet normal 1 0 0
    outer loop
      vertex 8 35 125
      vertex 8 50 55.7229
      vertex 8 63 10
    endloop
  endfacet
  facet normal 1 0 0
    outer loop
      vertex 8 63 10
      vertex 8 50 55
      vertex 8 58 10
    endloop
  endfacet
  facet normal 1 0 0
    outer loop
      vertex 8 58 10
      vertex 8 50 55
      vertex 8 49 55
    endloop
  endfacet
  facet normal 0 0 -1
    outer loop
      vertex 8 58 10
      vertex 1.06581e-014 58 10
      vertex 1.15463e-014 63 10
    endloop
  endfacet
  facet normal 0 -0.967823 -0.251634
    outer loop
      vertex 4 45 60
      vertex 8 32 110
      vertex 2.66454e-014 32 110
    endloop
  endfacet
  facet normal 0 -0.967823 -0.251634
    outer loop
      vertex 8 32 110
      vertex 4 45 60
      vertex 8 45 60
    endloop
  endfacet
  facet normal -1 -0 -0
    outer loop
      vertex 8 45 60
      vertex 8 45.2919 58.8774
      vertex 8 32 110
    endloop
  endfacet
  facet normal -0 -0.967823 -0.251634
    outer loop
      vertex 8 46.3 55
      vertex 4.4 46.3 55
      vertex 8 58 10
    endloop
  endfacet
  facet normal 1 -3.73234e-011 -9.70425e-012
    outer loop
      vertex 1.06581e-014 58 10
      vertex 1.78826e-014 46.3 55
      vertex 1.79856e-014 46.0833 55.8333
    endloop
  endfacet
  facet normal 0 -0.967823 -0.251634
    outer loop
      vertex 1.06581e-014 58 10
      vertex 4.4 46.3 55
      vertex 1.78826e-014 46.3 55
    endloop
  endfacet
  facet normal 0 -0.967823 -0.251634
    outer loop
      vertex 4.4 46.3 55
      vertex 1.06581e-014 58 10
      vertex 8 58 10
    endloop
  endfacet
  facet normal 0 -0.967823 -0.251634
    outer loop
      vertex 2.66454e-014 32 110
      vertex 1.86517e-014 45 60
      vertex 4 45 60
    endloop
  endfacet
  facet normal -1 1.77636e-016 2.06057e-016
    outer loop
      vertex 1.79856e-014 46.0833 55.8333
      vertex 1.15463e-014 63 10
      vertex 1.06581e-014 58 10
    endloop
  endfacet
  facet normal -1 1.77636e-016 2.06057e-016
    outer loop
      vertex 1.15463e-014 63 10
      vertex 1.79856e-014 46.0833 55.8333
      vertex 1.87939e-014 48.12 58
    endloop
  endfacet
  facet normal -1 1.77636e-016 2.06057e-016
    outer loop
      vertex 1.90958e-014 47.5 60
      vertex 1.86517e-014 45 60
      vertex 2.66454e-014 32 110
    endloop
  endfacet
  facet normal 1 0 0
    outer loop
      vertex 8 48.7279 56.3604
      vertex 8 50 55
      vertex 8 50 55.7229
    endloop
  endfacet
  facet normal 1 0 0
    outer loop
      vertex 8 45.2919 58.8774
      vertex 8 50 55
      vertex 8 48.7279 56.3604
    endloop
  endfacet
  facet normal 1 0 0
    outer loop
      vertex 8 3 55
      vertex 8 45 60
      vertex 8 3 60
    endloop
  endfacet
  facet normal 1 0 0
    outer loop
      vertex 8 45 60
      vertex 8 3 55
      vertex 8 45.2919 58.8774
    endloop
  endfacet
  facet normal 1 0 0
    outer loop
      vertex 8 45.2919 58.8774
      vertex 8 3 55
      vertex 8 50 55
    endloop
  endfacet
  facet normal 0 1 0
    outer loop
      vertex 1.9807e-014 50 60
      vertex 1.87691e-014 50 55.6604
      vertex 1.95399e-014 50 60
    endloop
  endfacet
  facet normal -0 0 1
    outer loop
      vertex 1.95399e-014 50 60
      vertex 1.90958e-014 47.5 60
      vertex 1.9807e-014 50 60
    endloop
  endfacet
  facet normal nan nan nan
    outer loop
      vertex 1.95399e-014 50 60
      vertex 1.86517e-014 45 60
      vertex 1.90958e-014 47.5 60
    endloop
  endfacet
  facet normal 0 -0 1
    outer loop
      vertex 1.86517e-014 45 60
      vertex 1.95399e-014 50 60
      vertex 1.01857e-014 5 60
    endloop
  endfacet
  facet normal -0 0 1
    outer loop
      vertex 4 45 60
      vertex 8 5 60
      vertex 8 45 60
    endloop
  endfacet
  facet normal 0 0 1
    outer loop
      vertex 4 45 60
      vertex 4 5 60
      vertex 8 5 60
    endloop
  endfacet
  facet normal -0 0 1
    outer loop
      vertex 1.86517e-014 45 60
      vertex 4 5 60
      vertex 4 45 60
    endloop
  endfacet
  facet normal 0 0 1
    outer loop
      vertex 4 5 60
      vertex 1.86517e-014 45 60
      vertex 1.01857e-014 5 60
    endloop
  endfacet
  facet normal nan nan nan
    outer loop
      vertex 8 5 60
      vertex 8 3 60
      vertex 8 45 60
    endloop
  endfacet
  facet normal -1 2.07872e-016 1.77636e-016
    outer loop
      vertex 9.19359e-015 4.5 55
      vertex 1.79856e-014 46.0833 55.8333
      vertex 1.78826e-014 46.3 55
    endloop
  endfacet
  facet normal -1 2.07872e-016 1.77636e-016
    outer loop
      vertex 1.79856e-014 46.0833 55.8333
      vertex 9.19359e-015 4.5 55
      vertex 1.01857e-014 5 60
    endloop
  endfacet
  facet normal -1 2.07872e-016 1.77636e-016
    outer loop
      vertex 1.87939e-014 48.12 58
      vertex 1.95399e-014 50 60
      vertex 1.87691e-014 50 55.6604
    endloop
  endfacet
  facet normal -1 2.07872e-016 1.77636e-016
    outer loop
      vertex 1.87939e-014 48.12 58
      vertex 1.01857e-014 5 60
      vertex 1.95399e-014 50 60
    endloop
  endfacet
  facet normal -1 2.07872e-016 1.77636e-016
    outer loop
      vertex 1.01857e-014 5 60
      vertex 1.87939e-014 48.12 58
      vertex 1.79856e-014 46.0833 55.8333
    endloop
  endfacet
  facet normal 0 0 -1
    outer loop
      vertex 4.4 4.5 55
      vertex 8 46.3 55
      vertex 8 4.5 55
    endloop
  endfacet
  facet normal 0 0 -1
    outer loop
      vertex 4.4 4.5 55
      vertex 4.4 46.3 55
      vertex 8 46.3 55
    endloop
  endfacet
  facet normal 0 0 -1
    outer loop
      vertex 4.4 4.5 55
      vertex 1.78826e-014 46.3 55
      vertex 4.4 46.3 55
    endloop
  endfacet
  facet normal 0 -0 -1
    outer loop
      vertex 1.78826e-014 46.3 55
      vertex 4.4 4.5 55
      vertex 9.19359e-015 4.5 55
    endloop
  endfacet
  facet normal nan nan nan
    outer loop
      vertex 8 46.3 55
      vertex 8 49 55
      vertex 8 50 55
    endloop
  endfacet
  facet normal nan nan nan
    outer loop
      vertex 8 46.3 55
      vertex 8 50 55
      vertex 8 3 55
    endloop
  endfacet
  facet normal nan nan nan
    outer loop
      vertex 8 46.3 55
      vertex 8 3 55
      vertex 8 4.5 55
    endloop
  endfacet
endsolid OpenSCAD_Model
